<?xml version="1.0" encoding="utf-8" standalone="no"?>
<!DOCTYPE svg PUBLIC "-//W3C//DTD SVG 1.1//EN"
  "http://www.w3.org/Graphics/SVG/1.1/DTD/svg11.dtd">
<svg xmlns:xlink="http://www.w3.org/1999/xlink" width="713.056902pt" height="376.558529pt" viewBox="0 0 713.056902 376.558529" xmlns="http://www.w3.org/2000/svg" version="1.1">
 <metadata>
  <rdf:RDF xmlns:dc="http://purl.org/dc/elements/1.1/" xmlns:cc="http://creativecommons.org/ns#" xmlns:rdf="http://www.w3.org/1999/02/22-rdf-syntax-ns#">
   <cc:Work>
    <dc:type rdf:resource="http://purl.org/dc/dcmitype/StillImage"/>
    <dc:date>2025-03-08T09:37:53.988799</dc:date>
    <dc:format>image/svg+xml</dc:format>
    <dc:creator>
     <cc:Agent>
      <dc:title>Matplotlib v3.10.0, https://matplotlib.org/</dc:title>
     </cc:Agent>
    </dc:creator>
   </cc:Work>
  </rdf:RDF>
 </metadata>
 <defs>
  <style type="text/css">*{stroke-linejoin: round; stroke-linecap: butt}</style>
 </defs>
 <g id="figure_1">
  <g id="patch_1">
   <path d="M 0 376.558529 
L 713.056902 376.558529 
L 713.056902 0 
L 0 0 
z
" style="fill: #ffffff"/>
  </g>
  <g id="axes_1">
   <g id="patch_2">
    <path d="M 320.288943 189.411029 
C 320.288943 171.178062 316.697446 153.122388 309.719992 136.277324 
C 302.742538 119.432259 292.51482 104.125398 279.622166 91.232743 
C 266.729512 78.340089 251.422651 68.112372 234.577586 61.134917 
C 217.732521 54.157463 199.676847 50.565966 181.443881 50.565966 
C 163.210914 50.565966 145.15524 54.157463 128.310176 61.134917 
C 111.465111 68.112372 96.15825 78.340089 83.265596 91.232743 
C 70.372941 104.125398 60.145224 119.432259 53.16777 136.277324 
C 46.190315 153.122388 42.598818 171.178062 42.598818 189.411029 
C 42.598818 207.643995 46.190315 225.699669 53.16777 242.544734 
C 60.145224 259.389798 70.372941 274.69666 83.265596 287.589314 
C 96.15825 300.481968 111.465111 310.709686 128.310176 317.68714 
C 145.15524 324.664594 163.210914 328.256091 181.443881 328.256091 
C 199.676847 328.256091 217.732521 324.664594 234.577586 317.68714 
C 251.422651 310.709686 266.729512 300.481968 279.622166 287.589314 
C 292.51482 274.69666 302.742538 259.389798 309.719992 242.544734 
C 316.697446 225.699669 320.288943 207.643995 320.288943 189.411029 
M 181.443881 189.411029 
C 181.443881 189.411029 181.443881 189.411029 181.443881 189.411029 
C 181.443881 189.411029 181.443881 189.411029 181.443881 189.411029 
C 181.443881 189.411029 181.443881 189.411029 181.443881 189.411029 
C 181.443881 189.411029 181.443881 189.411029 181.443881 189.411029 
C 181.443881 189.411029 181.443881 189.411029 181.443881 189.411029 
C 181.443881 189.411029 181.443881 189.411029 181.443881 189.411029 
C 181.443881 189.411029 181.443881 189.411029 181.443881 189.411029 
C 181.443881 189.411029 181.443881 189.411029 181.443881 189.411029 
C 181.443881 189.411029 181.443881 189.411029 181.443881 189.411029 
C 181.443881 189.411029 181.443881 189.411029 181.443881 189.411029 
C 181.443881 189.411029 181.443881 189.411029 181.443881 189.411029 
C 181.443881 189.411029 181.443881 189.411029 181.443881 189.411029 
C 181.443881 189.411029 181.443881 189.411029 181.443881 189.411029 
C 181.443881 189.411029 181.443881 189.411029 181.443881 189.411029 
C 181.443881 189.411029 181.443881 189.411029 181.443881 189.411029 
C 181.443881 189.411029 181.443881 189.411029 181.443881 189.411029 
z
" style="fill: #ffffff"/>
   </g>
   <g id="patch_3">
    <path d="M 181.443881 189.411029 
L 185.029751 181.964893 
L 149.768697 123.636831 
L 82.06957 166.729491 
L 130.290226 230.204707 
L 181.443881 315.445981 
L 271.366622 261.122022 
L 181.443881 189.411029 
z
" clip-path="url(#pace822d638)" style="fill: #ea944c; opacity: 0.1; stroke: #ea944c; stroke-linejoin: miter"/>
   </g>
   <g id="patch_4">
    <path d="M 224.416556 179.602796 
L 190.408556 170.79569 
L 178.455656 183.205916 
L 125.713693 176.690977 
L 109.828764 246.522179 
L 181.443881 313.379834 
L 274.05892 263.269058 
L 224.416556 179.602796 
z
" clip-path="url(#pace822d638)" style="fill: #47aa47; opacity: 0.1; stroke: #47aa47; stroke-linejoin: miter"/>
   </g>
   <g id="patch_5">
    <path d="M 233.145381 177.610499 
L 196.683828 157.764952 
L 135.126394 93.231777 
L 60.583232 161.825374 
L 89.367302 262.83965 
L 181.443881 321.644421 
L 281.597353 269.280758 
L 233.145381 177.610499 
z
" clip-path="url(#pace822d638)" style="fill: #c62828; opacity: 0.15; stroke: #c62828; stroke-linejoin: miter"/>
   </g>
   <g id="matplotlib.axis_1">
    <g id="xtick_1">
     <g id="line2d_1">
      <path d="M 181.443881 189.411029 
L 316.807808 158.515096 
" clip-path="url(#pace822d638)" style="fill: none; stroke: #808080; stroke-opacity: 0.4; stroke-width: 0.5; stroke-linecap: square"/>
     </g>
     <g id="text_1">
      <!-- VisA -->
      <g transform="translate(320.485809 157.767481) scale(0.15 -0.15)">
       <defs>
        <path id="TimesNewRomanPSMT-56" d="M 4544 4238 
L 4544 4122 
Q 4319 4081 4203 3978 
Q 4038 3825 3909 3509 
L 2431 -97 
L 2316 -97 
L 728 3556 
Q 606 3838 556 3900 
Q 478 3997 364 4051 
Q 250 4106 56 4122 
L 56 4238 
L 1788 4238 
L 1788 4122 
Q 1494 4094 1406 4022 
Q 1319 3950 1319 3838 
Q 1319 3681 1463 3350 
L 2541 866 
L 3541 3319 
Q 3688 3681 3688 3822 
Q 3688 3913 3597 3995 
Q 3506 4078 3291 4113 
Q 3275 4116 3238 4122 
L 3238 4238 
L 4544 4238 
z
" transform="scale(0.015625)"/>
        <path id="TimesNewRomanPSMT-69" d="M 928 4444 
Q 1059 4444 1151 4351 
Q 1244 4259 1244 4128 
Q 1244 3997 1151 3903 
Q 1059 3809 928 3809 
Q 797 3809 703 3903 
Q 609 3997 609 4128 
Q 609 4259 701 4351 
Q 794 4444 928 4444 
z
M 1188 2947 
L 1188 647 
Q 1188 378 1227 289 
Q 1266 200 1342 156 
Q 1419 113 1622 113 
L 1622 0 
L 231 0 
L 231 113 
Q 441 113 512 153 
Q 584 194 626 287 
Q 669 381 669 647 
L 669 1750 
Q 669 2216 641 2353 
Q 619 2453 572 2492 
Q 525 2531 444 2531 
Q 356 2531 231 2484 
L 188 2597 
L 1050 2947 
L 1188 2947 
z
" transform="scale(0.015625)"/>
        <path id="TimesNewRomanPSMT-73" d="M 2050 2947 
L 2050 1972 
L 1947 1972 
Q 1828 2431 1642 2597 
Q 1456 2763 1169 2763 
Q 950 2763 815 2647 
Q 681 2531 681 2391 
Q 681 2216 781 2091 
Q 878 1963 1175 1819 
L 1631 1597 
Q 2266 1288 2266 781 
Q 2266 391 1970 151 
Q 1675 -88 1309 -88 
Q 1047 -88 709 6 
Q 606 38 541 38 
Q 469 38 428 -44 
L 325 -44 
L 325 978 
L 428 978 
Q 516 541 762 319 
Q 1009 97 1316 97 
Q 1531 97 1667 223 
Q 1803 350 1803 528 
Q 1803 744 1651 891 
Q 1500 1038 1047 1263 
Q 594 1488 453 1669 
Q 313 1847 313 2119 
Q 313 2472 555 2709 
Q 797 2947 1181 2947 
Q 1350 2947 1591 2875 
Q 1750 2828 1803 2828 
Q 1853 2828 1881 2850 
Q 1909 2872 1947 2947 
L 2050 2947 
z
" transform="scale(0.015625)"/>
        <path id="TimesNewRomanPSMT-41" d="M 2928 1419 
L 1288 1419 
L 1000 750 
Q 894 503 894 381 
Q 894 284 986 211 
Q 1078 138 1384 116 
L 1384 0 
L 50 0 
L 50 116 
Q 316 163 394 238 
Q 553 388 747 847 
L 2238 4334 
L 2347 4334 
L 3822 809 
Q 4000 384 4145 257 
Q 4291 131 4550 116 
L 4550 0 
L 2878 0 
L 2878 116 
Q 3131 128 3220 200 
Q 3309 272 3309 375 
Q 3309 513 3184 809 
L 2928 1419 
z
M 2841 1650 
L 2122 3363 
L 1384 1650 
L 2841 1650 
z
" transform="scale(0.015625)"/>
       </defs>
       <use xlink:href="#TimesNewRomanPSMT-56"/>
       <use xlink:href="#TimesNewRomanPSMT-69" transform="translate(66.216797 0)"/>
       <use xlink:href="#TimesNewRomanPSMT-73" transform="translate(94 0)"/>
       <use xlink:href="#TimesNewRomanPSMT-41" transform="translate(132.916016 0)"/>
      </g>
     </g>
    </g>
    <g id="xtick_2">
     <g id="line2d_2">
      <path d="M 181.443881 189.411029 
L 241.686496 64.31595 
" clip-path="url(#pace822d638)" style="fill: none; stroke: #808080; stroke-opacity: 0.4; stroke-width: 0.5; stroke-linecap: square"/>
     </g>
     <g id="text_2">
      <!-- MPDD -->
      <g transform="translate(228.497916 50.302098) scale(0.15 -0.15)">
       <defs>
        <path id="TimesNewRomanPSMT-4d" d="M 2619 0 
L 981 3566 
L 981 734 
Q 981 344 1066 247 
Q 1181 116 1431 116 
L 1581 116 
L 1581 0 
L 106 0 
L 106 116 
L 256 116 
Q 525 116 638 278 
Q 706 378 706 734 
L 706 3503 
Q 706 3784 644 3909 
Q 600 4000 483 4061 
Q 366 4122 106 4122 
L 106 4238 
L 1306 4238 
L 2844 922 
L 4356 4238 
L 5556 4238 
L 5556 4122 
L 5409 4122 
Q 5138 4122 5025 3959 
Q 4956 3859 4956 3503 
L 4956 734 
Q 4956 344 5044 247 
Q 5159 116 5409 116 
L 5556 116 
L 5556 0 
L 3756 0 
L 3756 116 
L 3906 116 
Q 4178 116 4288 278 
Q 4356 378 4356 734 
L 4356 3566 
L 2722 0 
L 2619 0 
z
" transform="scale(0.015625)"/>
        <path id="TimesNewRomanPSMT-50" d="M 1313 1984 
L 1313 750 
Q 1313 350 1400 253 
Q 1519 116 1759 116 
L 1922 116 
L 1922 0 
L 106 0 
L 106 116 
L 266 116 
Q 534 116 650 291 
Q 713 388 713 750 
L 713 3488 
Q 713 3888 628 3984 
Q 506 4122 266 4122 
L 106 4122 
L 106 4238 
L 1659 4238 
Q 2228 4238 2556 4120 
Q 2884 4003 3109 3725 
Q 3334 3447 3334 3066 
Q 3334 2547 2992 2222 
Q 2650 1897 2025 1897 
Q 1872 1897 1694 1919 
Q 1516 1941 1313 1984 
z
M 1313 2163 
Q 1478 2131 1606 2115 
Q 1734 2100 1825 2100 
Q 2150 2100 2386 2351 
Q 2622 2603 2622 3003 
Q 2622 3278 2509 3514 
Q 2397 3750 2190 3867 
Q 1984 3984 1722 3984 
Q 1563 3984 1313 3925 
L 1313 2163 
z
" transform="scale(0.015625)"/>
        <path id="TimesNewRomanPSMT-44" d="M 109 0 
L 109 116 
L 269 116 
Q 538 116 650 288 
Q 719 391 719 750 
L 719 3488 
Q 719 3884 631 3984 
Q 509 4122 269 4122 
L 109 4122 
L 109 4238 
L 1834 4238 
Q 2784 4238 3279 4022 
Q 3775 3806 4076 3303 
Q 4378 2800 4378 2141 
Q 4378 1256 3841 663 
Q 3238 0 2003 0 
L 109 0 
z
M 1319 306 
Q 1716 219 1984 219 
Q 2709 219 3187 728 
Q 3666 1238 3666 2109 
Q 3666 2988 3187 3494 
Q 2709 4000 1959 4000 
Q 1678 4000 1319 3909 
L 1319 306 
z
" transform="scale(0.015625)"/>
       </defs>
       <use xlink:href="#TimesNewRomanPSMT-4d"/>
       <use xlink:href="#TimesNewRomanPSMT-50" transform="translate(88.916016 0)"/>
       <use xlink:href="#TimesNewRomanPSMT-44" transform="translate(144.53125 0)"/>
       <use xlink:href="#TimesNewRomanPSMT-44" transform="translate(216.748047 0)"/>
      </g>
     </g>
    </g>
    <g id="xtick_3">
     <g id="line2d_3">
      <path d="M 181.443881 189.411029 
L 121.201266 64.31595 
" clip-path="url(#pace822d638)" style="fill: none; stroke: #808080; stroke-opacity: 0.4; stroke-width: 0.5; stroke-linecap: square"/>
     </g>
     <g id="text_3">
      <!-- KSDD -->
      <g transform="translate(92.297267 50.302098) scale(0.15 -0.15)">
       <defs>
        <path id="TimesNewRomanPSMT-4b" d="M 1913 2350 
L 3475 797 
Q 3859 413 4131 273 
Q 4403 134 4675 116 
L 4675 0 
L 2659 0 
L 2659 116 
Q 2841 116 2920 177 
Q 3000 238 3000 313 
Q 3000 388 2970 447 
Q 2941 506 2775 669 
L 1313 2116 
L 1313 750 
Q 1313 428 1353 325 
Q 1384 247 1484 191 
Q 1619 116 1769 116 
L 1913 116 
L 1913 0 
L 106 0 
L 106 116 
L 256 116 
Q 519 116 638 269 
Q 713 369 713 750 
L 713 3488 
Q 713 3809 672 3916 
Q 641 3991 544 4047 
Q 406 4122 256 4122 
L 106 4122 
L 106 4238 
L 1913 4238 
L 1913 4122 
L 1769 4122 
Q 1622 4122 1484 4050 
Q 1388 4000 1350 3900 
Q 1313 3800 1313 3488 
L 1313 2191 
Q 1375 2250 1741 2588 
Q 2669 3438 2863 3722 
Q 2947 3847 2947 3941 
Q 2947 4013 2881 4067 
Q 2816 4122 2659 4122 
L 2563 4122 
L 2563 4238 
L 4119 4238 
L 4119 4122 
Q 3981 4119 3868 4084 
Q 3756 4050 3593 3951 
Q 3431 3853 3194 3634 
Q 3125 3572 2559 2994 
L 1913 2350 
z
" transform="scale(0.015625)"/>
        <path id="TimesNewRomanPSMT-53" d="M 2934 4334 
L 2934 2869 
L 2819 2869 
Q 2763 3291 2617 3541 
Q 2472 3791 2203 3937 
Q 1934 4084 1647 4084 
Q 1322 4084 1109 3886 
Q 897 3688 897 3434 
Q 897 3241 1031 3081 
Q 1225 2847 1953 2456 
Q 2547 2138 2764 1967 
Q 2981 1797 3098 1565 
Q 3216 1334 3216 1081 
Q 3216 600 2842 251 
Q 2469 -97 1881 -97 
Q 1697 -97 1534 -69 
Q 1438 -53 1133 45 
Q 828 144 747 144 
Q 669 144 623 97 
Q 578 50 556 -97 
L 441 -97 
L 441 1356 
L 556 1356 
Q 638 900 775 673 
Q 913 447 1195 297 
Q 1478 147 1816 147 
Q 2206 147 2432 353 
Q 2659 559 2659 841 
Q 2659 997 2573 1156 
Q 2488 1316 2306 1453 
Q 2184 1547 1640 1851 
Q 1097 2156 867 2337 
Q 638 2519 519 2737 
Q 400 2956 400 3219 
Q 400 3675 750 4004 
Q 1100 4334 1641 4334 
Q 1978 4334 2356 4169 
Q 2531 4091 2603 4091 
Q 2684 4091 2736 4139 
Q 2788 4188 2819 4334 
L 2934 4334 
z
" transform="scale(0.015625)"/>
       </defs>
       <use xlink:href="#TimesNewRomanPSMT-4b"/>
       <use xlink:href="#TimesNewRomanPSMT-53" transform="translate(72.216797 0)"/>
       <use xlink:href="#TimesNewRomanPSMT-44" transform="translate(127.832031 0)"/>
       <use xlink:href="#TimesNewRomanPSMT-44" transform="translate(200.048828 0)"/>
      </g>
     </g>
    </g>
    <g id="xtick_4">
     <g id="line2d_4">
      <path d="M 181.443881 189.411029 
L 46.079954 158.515096 
" clip-path="url(#pace822d638)" style="fill: none; stroke: #808080; stroke-opacity: 0.4; stroke-width: 0.5; stroke-linecap: square"/>
     </g>
     <g id="text_4">
      <!-- BTAD -->
      <g transform="translate(7.2 157.767481) scale(0.15 -0.15)">
       <defs>
        <path id="TimesNewRomanPSMT-42" d="M 2956 2163 
Q 3397 2069 3616 1863 
Q 3919 1575 3919 1159 
Q 3919 844 3719 555 
Q 3519 266 3170 133 
Q 2822 0 2106 0 
L 106 0 
L 106 116 
L 266 116 
Q 531 116 647 284 
Q 719 394 719 750 
L 719 3488 
Q 719 3881 628 3984 
Q 506 4122 266 4122 
L 106 4122 
L 106 4238 
L 1938 4238 
Q 2450 4238 2759 4163 
Q 3228 4050 3475 3764 
Q 3722 3478 3722 3106 
Q 3722 2788 3528 2536 
Q 3334 2284 2956 2163 
z
M 1319 2331 
Q 1434 2309 1582 2298 
Q 1731 2288 1909 2288 
Q 2366 2288 2595 2386 
Q 2825 2484 2947 2687 
Q 3069 2891 3069 3131 
Q 3069 3503 2766 3765 
Q 2463 4028 1881 4028 
Q 1569 4028 1319 3959 
L 1319 2331 
z
M 1319 306 
Q 1681 222 2034 222 
Q 2600 222 2897 476 
Q 3194 731 3194 1106 
Q 3194 1353 3059 1581 
Q 2925 1809 2622 1940 
Q 2319 2072 1872 2072 
Q 1678 2072 1540 2065 
Q 1403 2059 1319 2044 
L 1319 306 
z
" transform="scale(0.015625)"/>
        <path id="TimesNewRomanPSMT-54" d="M 3703 4238 
L 3750 3244 
L 3631 3244 
Q 3597 3506 3538 3619 
Q 3441 3800 3280 3886 
Q 3119 3972 2856 3972 
L 2259 3972 
L 2259 734 
Q 2259 344 2344 247 
Q 2463 116 2709 116 
L 2856 116 
L 2856 0 
L 1059 0 
L 1059 116 
L 1209 116 
Q 1478 116 1591 278 
Q 1659 378 1659 734 
L 1659 3972 
L 1150 3972 
Q 853 3972 728 3928 
Q 566 3869 450 3700 
Q 334 3531 313 3244 
L 194 3244 
L 244 4238 
L 3703 4238 
z
" transform="scale(0.015625)"/>
       </defs>
       <use xlink:href="#TimesNewRomanPSMT-42"/>
       <use xlink:href="#TimesNewRomanPSMT-54" transform="translate(66.699219 0)"/>
       <use xlink:href="#TimesNewRomanPSMT-41" transform="translate(119.783203 0)"/>
       <use xlink:href="#TimesNewRomanPSMT-44" transform="translate(192 0)"/>
      </g>
     </g>
    </g>
    <g id="xtick_5">
     <g id="line2d_5">
      <path d="M 181.443881 189.411029 
L 72.89044 275.979509 
" clip-path="url(#pace822d638)" style="fill: none; stroke: #808080; stroke-opacity: 0.4; stroke-width: 0.5; stroke-linecap: square"/>
     </g>
     <g id="text_5">
      <!-- DAGM -->
      <g transform="translate(34.684302 291.774621) scale(0.15 -0.15)">
       <defs>
        <path id="TimesNewRomanPSMT-47" d="M 3928 4334 
L 4038 2997 
L 3928 2997 
Q 3763 3497 3500 3750 
Q 3122 4116 2528 4116 
Q 1719 4116 1297 3475 
Q 944 2934 944 2188 
Q 944 1581 1178 1081 
Q 1413 581 1792 348 
Q 2172 116 2572 116 
Q 2806 116 3025 175 
Q 3244 234 3447 350 
L 3447 1575 
Q 3447 1894 3398 1992 
Q 3350 2091 3248 2142 
Q 3147 2194 2891 2194 
L 2891 2313 
L 4531 2313 
L 4531 2194 
L 4453 2194 
Q 4209 2194 4119 2031 
Q 4056 1916 4056 1575 
L 4056 278 
Q 3697 84 3347 -6 
Q 2997 -97 2569 -97 
Q 1341 -97 703 691 
Q 225 1281 225 2053 
Q 225 2613 494 3125 
Q 813 3734 1369 4063 
Q 1834 4334 2469 4334 
Q 2700 4334 2889 4296 
Q 3078 4259 3425 4131 
Q 3600 4066 3659 4066 
Q 3719 4066 3761 4120 
Q 3803 4175 3813 4334 
L 3928 4334 
z
" transform="scale(0.015625)"/>
       </defs>
       <use xlink:href="#TimesNewRomanPSMT-44"/>
       <use xlink:href="#TimesNewRomanPSMT-41" transform="translate(72.216797 0)"/>
       <use xlink:href="#TimesNewRomanPSMT-47" transform="translate(144.433594 0)"/>
       <use xlink:href="#TimesNewRomanPSMT-4d" transform="translate(216.650391 0)"/>
      </g>
     </g>
    </g>
    <g id="xtick_6">
     <g id="line2d_6">
      <path d="M 181.443881 189.411029 
L 181.443881 328.256091 
" clip-path="url(#pace822d638)" style="fill: none; stroke: #808080; stroke-opacity: 0.4; stroke-width: 0.5; stroke-linecap: square"/>
     </g>
     <g id="text_6">
      <!-- DTD -->
      <g transform="translate(166.030209 351.413409) scale(0.15 -0.15)">
       <use xlink:href="#TimesNewRomanPSMT-44"/>
       <use xlink:href="#TimesNewRomanPSMT-54" transform="translate(72.216797 0)"/>
       <use xlink:href="#TimesNewRomanPSMT-44" transform="translate(133.300781 0)"/>
      </g>
     </g>
    </g>
    <g id="xtick_7">
     <g id="line2d_7">
      <path d="M 181.443881 189.411029 
L 289.997322 275.979509 
" clip-path="url(#pace822d638)" style="fill: none; stroke: #808080; stroke-opacity: 0.4; stroke-width: 0.5; stroke-linecap: square"/>
     </g>
     <g id="text_7">
      <!-- MVTec -->
      <g transform="translate(282.4851 291.774621) scale(0.15 -0.15)">
       <defs>
        <path id="TimesNewRomanPSMT-65" d="M 681 1784 
Q 678 1147 991 784 
Q 1303 422 1725 422 
Q 2006 422 2214 576 
Q 2422 731 2563 1106 
L 2659 1044 
Q 2594 616 2278 264 
Q 1963 -88 1488 -88 
Q 972 -88 605 314 
Q 238 716 238 1394 
Q 238 2128 614 2539 
Q 991 2950 1559 2950 
Q 2041 2950 2350 2633 
Q 2659 2316 2659 1784 
L 681 1784 
z
M 681 1966 
L 2006 1966 
Q 1991 2241 1941 2353 
Q 1863 2528 1708 2628 
Q 1553 2728 1384 2728 
Q 1125 2728 920 2526 
Q 716 2325 681 1966 
z
" transform="scale(0.015625)"/>
        <path id="TimesNewRomanPSMT-63" d="M 2631 1088 
Q 2516 522 2178 217 
Q 1841 -88 1431 -88 
Q 944 -88 581 321 
Q 219 731 219 1428 
Q 219 2103 620 2525 
Q 1022 2947 1584 2947 
Q 2006 2947 2278 2723 
Q 2550 2500 2550 2259 
Q 2550 2141 2473 2067 
Q 2397 1994 2259 1994 
Q 2075 1994 1981 2113 
Q 1928 2178 1911 2362 
Q 1894 2547 1784 2644 
Q 1675 2738 1481 2738 
Q 1169 2738 978 2506 
Q 725 2200 725 1697 
Q 725 1184 976 792 
Q 1228 400 1656 400 
Q 1963 400 2206 609 
Q 2378 753 2541 1131 
L 2631 1088 
z
" transform="scale(0.015625)"/>
       </defs>
       <use xlink:href="#TimesNewRomanPSMT-4d"/>
       <use xlink:href="#TimesNewRomanPSMT-56" transform="translate(88.916016 0)"/>
       <use xlink:href="#TimesNewRomanPSMT-54" transform="translate(161.132812 0)"/>
       <use xlink:href="#TimesNewRomanPSMT-65" transform="translate(215.216797 0)"/>
       <use xlink:href="#TimesNewRomanPSMT-63" transform="translate(259.601562 0)"/>
      </g>
     </g>
    </g>
   </g>
   <g id="matplotlib.axis_2">
    <g id="ytick_1">
     <g id="line2d_8">
      <path d="M 214.502229 189.411029 
C 214.502229 185.069846 213.647111 180.770876 211.985812 176.760146 
C 210.324514 172.749417 207.889343 169.104926 204.819663 166.035246 
C 201.749983 162.965567 198.105493 160.530396 194.094763 158.869097 
C 190.084033 157.207799 185.785063 156.35268 181.443881 156.35268 
C 177.102698 156.35268 172.803728 157.207799 168.792999 158.869097 
C 164.782269 160.530396 161.137778 162.965567 158.068099 166.035246 
C 154.998419 169.104926 152.563248 172.749417 150.90195 176.760146 
C 149.240651 180.770876 148.385533 185.069846 148.385533 189.411029 
C 148.385533 193.752211 149.240651 198.051181 150.90195 202.061911 
C 152.563248 206.07264 154.998419 209.717131 158.068099 212.786811 
C 161.137778 215.85649 164.782269 218.291661 168.792999 219.95296 
C 172.803728 221.614259 177.102698 222.469377 181.443881 222.469377 
C 185.785063 222.469377 190.084033 221.614259 194.094763 219.95296 
C 198.105493 218.291661 201.749983 215.85649 204.819663 212.786811 
C 207.889343 209.717131 210.324514 206.07264 211.985812 202.061911 
C 213.647111 198.051181 214.502229 193.752211 214.502229 189.411029 
" clip-path="url(#pace822d638)" style="fill: none; stroke: #666666; stroke-opacity: 0.4; stroke-width: 0.3; stroke-linecap: square"/>
     </g>
     <g id="text_8">
      <!-- 25 -->
      <g style="fill: #ffffff" transform="translate(211.985812 176.54624) scale(0.01 -0.01)">
       <defs>
        <path id="TimesNewRomanPSMT-32" d="M 2934 816 
L 2638 0 
L 138 0 
L 138 116 
Q 1241 1122 1691 1759 
Q 2141 2397 2141 2925 
Q 2141 3328 1894 3587 
Q 1647 3847 1303 3847 
Q 991 3847 742 3664 
Q 494 3481 375 3128 
L 259 3128 
Q 338 3706 661 4015 
Q 984 4325 1469 4325 
Q 1984 4325 2329 3994 
Q 2675 3663 2675 3213 
Q 2675 2891 2525 2569 
Q 2294 2063 1775 1497 
Q 997 647 803 472 
L 1909 472 
Q 2247 472 2383 497 
Q 2519 522 2628 598 
Q 2738 675 2819 816 
L 2934 816 
z
" transform="scale(0.015625)"/>
        <path id="TimesNewRomanPSMT-35" d="M 2778 4238 
L 2534 3706 
L 1259 3706 
L 981 3138 
Q 1809 3016 2294 2522 
Q 2709 2097 2709 1522 
Q 2709 1188 2573 903 
Q 2438 619 2231 419 
Q 2025 219 1772 97 
Q 1413 -75 1034 -75 
Q 653 -75 479 54 
Q 306 184 306 341 
Q 306 428 378 495 
Q 450 563 559 563 
Q 641 563 702 538 
Q 763 513 909 409 
Q 1144 247 1384 247 
Q 1750 247 2026 523 
Q 2303 800 2303 1197 
Q 2303 1581 2056 1914 
Q 1809 2247 1375 2428 
Q 1034 2569 447 2591 
L 1259 4238 
L 2778 4238 
z
" transform="scale(0.015625)"/>
       </defs>
       <use xlink:href="#TimesNewRomanPSMT-32"/>
       <use xlink:href="#TimesNewRomanPSMT-35" transform="translate(50 0)"/>
      </g>
     </g>
    </g>
    <g id="ytick_2">
     <g id="line2d_9">
      <path d="M 247.560577 189.411029 
C 247.560577 180.728664 245.850341 172.130724 242.527743 164.109264 
C 239.205146 156.087805 234.334804 148.798823 228.195445 142.659464 
C 222.056086 136.520105 214.767105 131.649763 206.745645 128.327166 
C 198.724186 125.004569 190.126246 123.294332 181.443881 123.294332 
C 172.761516 123.294332 164.163576 125.004569 156.142117 128.327166 
C 148.120657 131.649763 140.831676 136.520105 134.692317 142.659464 
C 128.552957 148.798823 123.682616 156.087805 120.360018 164.109264 
C 117.037421 172.130724 115.327185 180.728664 115.327185 189.411029 
C 115.327185 198.093394 117.037421 206.691334 120.360018 214.712793 
C 123.682616 222.734252 128.552957 230.023234 134.692317 236.162593 
C 140.831676 242.301952 148.120657 247.172294 156.142117 250.494891 
C 164.163576 253.817488 172.761516 255.527725 181.443881 255.527725 
C 190.126246 255.527725 198.724186 253.817488 206.745645 250.494891 
C 214.767105 247.172294 222.056086 242.301952 228.195445 236.162593 
C 234.334804 230.023234 239.205146 222.734252 242.527743 214.712793 
C 245.850341 206.691334 247.560577 198.093394 247.560577 189.411029 
" clip-path="url(#pace822d638)" style="fill: none; stroke: #666666; stroke-opacity: 0.4; stroke-width: 0.3; stroke-linecap: square"/>
     </g>
     <g id="text_9">
      <!-- 50 -->
      <g style="fill: #ffffff" transform="translate(242.527743 163.895358) scale(0.01 -0.01)">
       <defs>
        <path id="TimesNewRomanPSMT-30" d="M 231 2094 
Q 231 2819 450 3342 
Q 669 3866 1031 4122 
Q 1313 4325 1613 4325 
Q 2100 4325 2488 3828 
Q 2972 3213 2972 2159 
Q 2972 1422 2759 906 
Q 2547 391 2217 158 
Q 1888 -75 1581 -75 
Q 975 -75 572 641 
Q 231 1244 231 2094 
z
M 844 2016 
Q 844 1141 1059 588 
Q 1238 122 1591 122 
Q 1759 122 1940 273 
Q 2122 425 2216 781 
Q 2359 1319 2359 2297 
Q 2359 3022 2209 3506 
Q 2097 3866 1919 4016 
Q 1791 4119 1609 4119 
Q 1397 4119 1231 3928 
Q 1006 3669 925 3112 
Q 844 2556 844 2016 
z
" transform="scale(0.015625)"/>
       </defs>
       <use xlink:href="#TimesNewRomanPSMT-35"/>
       <use xlink:href="#TimesNewRomanPSMT-30" transform="translate(50 0)"/>
      </g>
     </g>
    </g>
    <g id="ytick_3">
     <g id="line2d_10">
      <path d="M 280.618925 189.411029 
C 280.618925 176.387481 278.053571 163.490571 273.069675 151.458382 
C 268.085779 139.426193 260.780266 128.492721 251.571227 119.283682 
C 242.362189 110.074643 231.428716 102.769131 219.396527 97.785235 
C 207.364338 92.801339 194.467428 90.235984 181.443881 90.235984 
C 168.420333 90.235984 155.523423 92.801339 143.491234 97.785235 
C 131.459045 102.769131 120.525573 110.074643 111.316534 119.283682 
C 102.107496 128.492721 94.801983 139.426193 89.818087 151.458382 
C 84.834191 163.490571 82.268836 176.387481 82.268836 189.411029 
C 82.268836 202.434576 84.834191 215.331486 89.818087 227.363675 
C 94.801983 239.395864 102.107496 250.329336 111.316534 259.538375 
C 120.525573 268.747414 131.459045 276.052927 143.491234 281.036822 
C 155.523423 286.020718 168.420333 288.586073 181.443881 288.586073 
C 194.467428 288.586073 207.364338 286.020718 219.396527 281.036822 
C 231.428716 276.052927 242.362189 268.747414 251.571227 259.538375 
C 260.780266 250.329336 268.085779 239.395864 273.069675 227.363675 
C 278.053571 215.331486 280.618925 202.434576 280.618925 189.411029 
" clip-path="url(#pace822d638)" style="fill: none; stroke: #666666; stroke-opacity: 0.4; stroke-width: 0.3; stroke-linecap: square"/>
     </g>
     <g id="text_10">
      <!-- 75 -->
      <g style="fill: #ffffff" transform="translate(273.069675 151.244476) scale(0.01 -0.01)">
       <defs>
        <path id="TimesNewRomanPSMT-37" d="M 644 4238 
L 2916 4238 
L 2916 4119 
L 1503 -88 
L 1153 -88 
L 2419 3728 
L 1253 3728 
Q 900 3728 750 3644 
Q 488 3500 328 3200 
L 238 3234 
L 644 4238 
z
" transform="scale(0.015625)"/>
       </defs>
       <use xlink:href="#TimesNewRomanPSMT-37"/>
       <use xlink:href="#TimesNewRomanPSMT-35" transform="translate(50 0)"/>
      </g>
     </g>
    </g>
    <g id="ytick_4">
     <g id="line2d_11">
      <path d="M 313.677274 189.411029 
C 313.677274 172.046299 310.2568 154.850419 303.611606 138.8075 
C 296.966412 122.764581 287.225728 108.186618 274.94701 95.9079 
C 262.668291 83.629182 248.090328 73.888498 232.04741 67.243304 
C 216.004491 60.598109 198.808611 57.177636 181.443881 57.177636 
C 164.079151 57.177636 146.883271 60.598109 130.840352 67.243304 
C 114.797434 73.888498 100.219471 83.629182 87.940752 95.9079 
C 75.662034 108.186618 65.92135 122.764581 59.276156 138.8075 
C 52.630961 154.850419 49.210488 172.046299 49.210488 189.411029 
C 49.210488 206.775759 52.630961 223.971639 59.276156 240.014557 
C 65.92135 256.057476 75.662034 270.635439 87.940752 282.914157 
C 100.219471 295.192876 114.797434 304.933559 130.840352 311.578754 
C 146.883271 318.223948 164.079151 321.644421 181.443881 321.644421 
C 198.808611 321.644421 216.004491 318.223948 232.04741 311.578754 
C 248.090328 304.933559 262.668291 295.192876 274.94701 282.914157 
C 287.225728 270.635439 296.966412 256.057476 303.611606 240.014557 
C 310.2568 223.971639 313.677274 206.775759 313.677274 189.411029 
" clip-path="url(#pace822d638)" style="fill: none; stroke: #666666; stroke-opacity: 0.4; stroke-width: 0.3; stroke-linecap: square"/>
     </g>
     <g id="text_11">
      <!-- 100 -->
      <g style="fill: #ffffff" transform="translate(303.611606 138.593594) scale(0.01 -0.01)">
       <defs>
        <path id="TimesNewRomanPSMT-31" d="M 750 3822 
L 1781 4325 
L 1884 4325 
L 1884 747 
Q 1884 391 1914 303 
Q 1944 216 2037 169 
Q 2131 122 2419 116 
L 2419 0 
L 825 0 
L 825 116 
Q 1125 122 1212 167 
Q 1300 213 1334 289 
Q 1369 366 1369 747 
L 1369 3034 
Q 1369 3497 1338 3628 
Q 1316 3728 1258 3775 
Q 1200 3822 1119 3822 
Q 1003 3822 797 3725 
L 750 3822 
z
" transform="scale(0.015625)"/>
       </defs>
       <use xlink:href="#TimesNewRomanPSMT-31"/>
       <use xlink:href="#TimesNewRomanPSMT-30" transform="translate(50 0)"/>
       <use xlink:href="#TimesNewRomanPSMT-30" transform="translate(100 0)"/>
      </g>
     </g>
    </g>
   </g>
   <g id="line2d_12">
    <path d="M 181.443881 189.411029 
L 185.029751 181.964893 
L 149.768697 123.636831 
L 82.06957 166.729491 
L 130.290226 230.204707 
L 181.443881 315.445981 
L 271.366622 261.122022 
L 181.443881 189.411029 
" clip-path="url(#pace822d638)" style="fill: none; stroke: #ea944c; stroke-width: 1.2; stroke-linecap: square"/>
   </g>
   <g id="line2d_13">
    <path d="M 224.416556 179.602796 
L 190.408556 170.79569 
L 178.455656 183.205916 
L 125.713693 176.690977 
L 109.828764 246.522179 
L 181.443881 313.379834 
L 274.05892 263.269058 
L 224.416556 179.602796 
" clip-path="url(#pace822d638)" style="fill: none; stroke: #47aa47; stroke-width: 1.2; stroke-linecap: square"/>
   </g>
   <g id="line2d_14">
    <path d="M 233.145381 177.610499 
L 196.683828 157.764952 
L 135.126394 93.231777 
L 60.583232 161.825374 
L 89.367302 262.83965 
L 181.443881 321.644421 
L 281.597353 269.280758 
L 233.145381 177.610499 
" clip-path="url(#pace822d638)" style="fill: none; stroke: #c62828; stroke-width: 1.2; stroke-linecap: square"/>
   </g>
   <g id="patch_6">
    <path d="M 320.288943 189.411029 
C 320.288943 171.178062 316.697446 153.122388 309.719992 136.277324 
C 302.742538 119.432259 292.51482 104.125398 279.622166 91.232743 
C 266.729512 78.340089 251.422651 68.112372 234.577586 61.134917 
C 217.732521 54.157463 199.676847 50.565966 181.443881 50.565966 
C 163.210914 50.565966 145.15524 54.157463 128.310176 61.134917 
C 111.465111 68.112372 96.15825 78.340089 83.265596 91.232743 
C 70.372941 104.125398 60.145224 119.432259 53.16777 136.277324 
C 46.190315 153.122388 42.598818 171.178062 42.598818 189.411029 
C 42.598818 207.643995 46.190315 225.699669 53.16777 242.544734 
C 60.145224 259.389798 70.372941 274.69666 83.265596 287.589314 
C 96.15825 300.481968 111.465111 310.709686 128.310176 317.68714 
C 145.15524 324.664594 163.210914 328.256091 181.443881 328.256091 
C 199.676847 328.256091 217.732521 324.664594 234.577586 317.68714 
C 251.422651 310.709686 266.729512 300.481968 279.622166 287.589314 
C 292.51482 274.69666 302.742538 259.389798 309.719992 242.544734 
C 316.697446 225.699669 320.288943 207.643995 320.288943 189.411029 
" style="fill: none; opacity: 0.6; stroke-dasharray: 1.85,0.8; stroke-dashoffset: 0; stroke: #ffffff; stroke-width: 0.5; stroke-linejoin: miter; stroke-linecap: square"/>
   </g>
   <g id="text_12">
    <g id="text_13">
     <g id="text_14">
      <!-- 89.6 -->
      <g style="fill: #ea944c" transform="translate(142.381088 139.154163) scale(0.15 -0.15)">
       <defs>
        <path id="TimesNewRomanPSMT-38" d="M 1228 2134 
Q 725 2547 579 2797 
Q 434 3047 434 3316 
Q 434 3728 753 4026 
Q 1072 4325 1600 4325 
Q 2113 4325 2425 4047 
Q 2738 3769 2738 3413 
Q 2738 3175 2569 2928 
Q 2400 2681 1866 2347 
Q 2416 1922 2594 1678 
Q 2831 1359 2831 1006 
Q 2831 559 2490 242 
Q 2150 -75 1597 -75 
Q 994 -75 656 303 
Q 388 606 388 966 
Q 388 1247 577 1523 
Q 766 1800 1228 2134 
z
M 1719 2469 
Q 2094 2806 2194 3001 
Q 2294 3197 2294 3444 
Q 2294 3772 2109 3958 
Q 1925 4144 1606 4144 
Q 1288 4144 1088 3959 
Q 888 3775 888 3528 
Q 888 3366 970 3203 
Q 1053 3041 1206 2894 
L 1719 2469 
z
M 1375 2016 
Q 1116 1797 991 1539 
Q 866 1281 866 981 
Q 866 578 1086 336 
Q 1306 94 1647 94 
Q 1984 94 2187 284 
Q 2391 475 2391 747 
Q 2391 972 2272 1150 
Q 2050 1481 1375 2016 
z
" transform="scale(0.015625)"/>
        <path id="TimesNewRomanPSMT-39" d="M 338 -88 
L 338 28 
Q 744 34 1094 217 
Q 1444 400 1770 856 
Q 2097 1313 2225 1859 
Q 1734 1544 1338 1544 
Q 891 1544 572 1889 
Q 253 2234 253 2806 
Q 253 3363 572 3797 
Q 956 4325 1575 4325 
Q 2097 4325 2469 3894 
Q 2925 3359 2925 2575 
Q 2925 1869 2578 1258 
Q 2231 647 1613 244 
Q 1109 -88 516 -88 
L 338 -88 
z
M 2275 2091 
Q 2331 2497 2331 2741 
Q 2331 3044 2228 3395 
Q 2125 3747 1936 3934 
Q 1747 4122 1506 4122 
Q 1228 4122 1018 3872 
Q 809 3622 809 3128 
Q 809 2469 1088 2097 
Q 1291 1828 1588 1828 
Q 1731 1828 1928 1897 
Q 2125 1966 2275 2091 
z
" transform="scale(0.015625)"/>
        <path id="TimesNewRomanPSMT-2e" d="M 800 606 
Q 947 606 1047 504 
Q 1147 403 1147 259 
Q 1147 116 1045 14 
Q 944 -88 800 -88 
Q 656 -88 554 14 
Q 453 116 453 259 
Q 453 406 554 506 
Q 656 606 800 606 
z
" transform="scale(0.015625)"/>
        <path id="TimesNewRomanPSMT-36" d="M 2869 4325 
L 2869 4209 
Q 2456 4169 2195 4045 
Q 1934 3922 1679 3669 
Q 1425 3416 1258 3105 
Q 1091 2794 978 2366 
Q 1428 2675 1881 2675 
Q 2316 2675 2634 2325 
Q 2953 1975 2953 1425 
Q 2953 894 2631 456 
Q 2244 -75 1606 -75 
Q 1172 -75 869 213 
Q 275 772 275 1663 
Q 275 2231 503 2743 
Q 731 3256 1154 3653 
Q 1578 4050 1965 4187 
Q 2353 4325 2688 4325 
L 2869 4325 
z
M 925 2138 
Q 869 1716 869 1456 
Q 869 1156 980 804 
Q 1091 453 1309 247 
Q 1469 100 1697 100 
Q 1969 100 2183 356 
Q 2397 613 2397 1088 
Q 2397 1622 2184 2012 
Q 1972 2403 1581 2403 
Q 1463 2403 1327 2353 
Q 1191 2303 925 2138 
z
" transform="scale(0.015625)"/>
       </defs>
       <use xlink:href="#TimesNewRomanPSMT-38"/>
       <use xlink:href="#TimesNewRomanPSMT-39" transform="translate(50 0)"/>
       <use xlink:href="#TimesNewRomanPSMT-2e" transform="translate(100 0)"/>
       <use xlink:href="#TimesNewRomanPSMT-36" transform="translate(125 0)"/>
      </g>
     </g>
     <g id="text_15">
      <!-- 93.8 -->
      <g style="fill: #ea944c" transform="translate(81.836372 173.275476) scale(0.15 -0.15)">
       <defs>
        <path id="TimesNewRomanPSMT-33" d="M 325 3431 
Q 506 3859 782 4092 
Q 1059 4325 1472 4325 
Q 1981 4325 2253 3994 
Q 2459 3747 2459 3466 
Q 2459 3003 1878 2509 
Q 2269 2356 2469 2072 
Q 2669 1788 2669 1403 
Q 2669 853 2319 450 
Q 1863 -75 997 -75 
Q 569 -75 414 31 
Q 259 138 259 259 
Q 259 350 332 419 
Q 406 488 509 488 
Q 588 488 669 463 
Q 722 447 909 348 
Q 1097 250 1169 231 
Q 1284 197 1416 197 
Q 1734 197 1970 444 
Q 2206 691 2206 1028 
Q 2206 1275 2097 1509 
Q 2016 1684 1919 1775 
Q 1784 1900 1550 2001 
Q 1316 2103 1072 2103 
L 972 2103 
L 972 2197 
Q 1219 2228 1467 2375 
Q 1716 2522 1828 2728 
Q 1941 2934 1941 3181 
Q 1941 3503 1739 3701 
Q 1538 3900 1238 3900 
Q 753 3900 428 3381 
L 325 3431 
z
" transform="scale(0.015625)"/>
       </defs>
       <use xlink:href="#TimesNewRomanPSMT-39"/>
       <use xlink:href="#TimesNewRomanPSMT-33" transform="translate(50 0)"/>
       <use xlink:href="#TimesNewRomanPSMT-2e" transform="translate(100 0)"/>
       <use xlink:href="#TimesNewRomanPSMT-38" transform="translate(125 0)"/>
      </g>
     </g>
     <g id="text_16">
      <!-- 88.5 -->
      <g style="fill: #ea944c" transform="translate(127.503649 225.563606) scale(0.15 -0.15)">
       <use xlink:href="#TimesNewRomanPSMT-38"/>
       <use xlink:href="#TimesNewRomanPSMT-38" transform="translate(50 0)"/>
       <use xlink:href="#TimesNewRomanPSMT-2e" transform="translate(100 0)"/>
       <use xlink:href="#TimesNewRomanPSMT-35" transform="translate(125 0)"/>
      </g>
     </g>
     <g id="text_17">
      <!-- 97.3 -->
      <g style="fill: #ea944c" transform="translate(168.318881 305.826157) scale(0.15 -0.15)">
       <use xlink:href="#TimesNewRomanPSMT-39"/>
       <use xlink:href="#TimesNewRomanPSMT-37" transform="translate(50 0)"/>
       <use xlink:href="#TimesNewRomanPSMT-2e" transform="translate(100 0)"/>
       <use xlink:href="#TimesNewRomanPSMT-33" transform="translate(125 0)"/>
      </g>
     </g>
     <g id="text_18">
      <!-- 95.7 -->
      <g style="fill: #ea944c" transform="translate(247.903199 256.48092) scale(0.15 -0.15)">
       <use xlink:href="#TimesNewRomanPSMT-39"/>
       <use xlink:href="#TimesNewRomanPSMT-35" transform="translate(50 0)"/>
       <use xlink:href="#TimesNewRomanPSMT-2e" transform="translate(100 0)"/>
       <use xlink:href="#TimesNewRomanPSMT-37" transform="translate(125 0)"/>
      </g>
     </g>
     <g id="text_19">
      <!-- 85.4 -->
      <g style="fill: #47aa47" transform="translate(216.448277 182.029324) scale(0.15 -0.15)">
       <defs>
        <path id="TimesNewRomanPSMT-34" d="M 2978 1563 
L 2978 1119 
L 2409 1119 
L 2409 0 
L 1894 0 
L 1894 1119 
L 100 1119 
L 100 1519 
L 2066 4325 
L 2409 4325 
L 2409 1563 
L 2978 1563 
z
M 1894 1563 
L 1894 3666 
L 406 1563 
L 1894 1563 
z
" transform="scale(0.015625)"/>
       </defs>
       <use xlink:href="#TimesNewRomanPSMT-38"/>
       <use xlink:href="#TimesNewRomanPSMT-35" transform="translate(50 0)"/>
       <use xlink:href="#TimesNewRomanPSMT-2e" transform="translate(100 0)"/>
       <use xlink:href="#TimesNewRomanPSMT-34" transform="translate(125 0)"/>
      </g>
     </g>
     <g id="text_20">
      <!-- 82.0 -->
      <g style="fill: #47aa47" transform="translate(179.578512 169.633678) scale(0.15 -0.15)">
       <use xlink:href="#TimesNewRomanPSMT-38"/>
       <use xlink:href="#TimesNewRomanPSMT-32" transform="translate(50 0)"/>
       <use xlink:href="#TimesNewRomanPSMT-2e" transform="translate(100 0)"/>
       <use xlink:href="#TimesNewRomanPSMT-30" transform="translate(125 0)"/>
      </g>
     </g>
     <g id="text_21">
      <!-- 80.0 -->
      <g style="fill: #47aa47" transform="translate(163.035699 182.043904) scale(0.15 -0.15)">
       <use xlink:href="#TimesNewRomanPSMT-38"/>
       <use xlink:href="#TimesNewRomanPSMT-30" transform="translate(50 0)"/>
       <use xlink:href="#TimesNewRomanPSMT-2e" transform="translate(100 0)"/>
       <use xlink:href="#TimesNewRomanPSMT-30" transform="translate(125 0)"/>
      </g>
     </g>
     <g id="text_22">
      <!-- 87.3 -->
      <g style="fill: #47aa47" transform="translate(107.431972 179.117505) scale(0.15 -0.15)">
       <use xlink:href="#TimesNewRomanPSMT-38"/>
       <use xlink:href="#TimesNewRomanPSMT-37" transform="translate(50 0)"/>
       <use xlink:href="#TimesNewRomanPSMT-2e" transform="translate(100 0)"/>
       <use xlink:href="#TimesNewRomanPSMT-33" transform="translate(125 0)"/>
      </g>
     </g>
     <g id="text_23">
      <!-- 92.3 -->
      <g style="fill: #47aa47" transform="translate(92.568394 253.423541) scale(0.15 -0.15)">
       <use xlink:href="#TimesNewRomanPSMT-39"/>
       <use xlink:href="#TimesNewRomanPSMT-32" transform="translate(50 0)"/>
       <use xlink:href="#TimesNewRomanPSMT-2e" transform="translate(100 0)"/>
       <use xlink:href="#TimesNewRomanPSMT-33" transform="translate(125 0)"/>
      </g>
     </g>
     <g id="text_24">
      <!-- 97.0 -->
      <g style="fill: #47aa47" transform="translate(168.318881 322.272686) scale(0.15 -0.15)">
       <use xlink:href="#TimesNewRomanPSMT-39"/>
       <use xlink:href="#TimesNewRomanPSMT-37" transform="translate(50 0)"/>
       <use xlink:href="#TimesNewRomanPSMT-2e" transform="translate(100 0)"/>
       <use xlink:href="#TimesNewRomanPSMT-30" transform="translate(125 0)"/>
      </g>
     </g>
     <g id="text_25">
      <!-- 96.2 -->
      <g style="fill: #47aa47" transform="translate(265.069289 270.17042) scale(0.15 -0.15)">
       <use xlink:href="#TimesNewRomanPSMT-39"/>
       <use xlink:href="#TimesNewRomanPSMT-36" transform="translate(50 0)"/>
       <use xlink:href="#TimesNewRomanPSMT-2e" transform="translate(100 0)"/>
       <use xlink:href="#TimesNewRomanPSMT-32" transform="translate(125 0)"/>
      </g>
     </g>
     <g id="text_26">
      <!-- 86.7 -->
      <g style="fill: #c62828" transform="translate(230.333823 178.860038) scale(0.15 -0.15)">
       <use xlink:href="#TimesNewRomanPSMT-38"/>
       <use xlink:href="#TimesNewRomanPSMT-36" transform="translate(50 0)"/>
       <use xlink:href="#TimesNewRomanPSMT-2e" transform="translate(100 0)"/>
       <use xlink:href="#TimesNewRomanPSMT-37" transform="translate(125 0)"/>
      </g>
     </g>
     <g id="text_27">
      <!-- 84.1 -->
      <g style="fill: #c62828" transform="translate(188.148742 151.837414) scale(0.15 -0.15)">
       <use xlink:href="#TimesNewRomanPSMT-38"/>
       <use xlink:href="#TimesNewRomanPSMT-34" transform="translate(50 0)"/>
       <use xlink:href="#TimesNewRomanPSMT-2e" transform="translate(100 0)"/>
       <use xlink:href="#TimesNewRomanPSMT-31" transform="translate(125 0)"/>
      </g>
     </g>
     <g id="text_28">
      <!-- 94.5 -->
      <g style="fill: #c62828" transform="translate(117.411481 87.304239) scale(0.15 -0.15)">
       <use xlink:href="#TimesNewRomanPSMT-39"/>
       <use xlink:href="#TimesNewRomanPSMT-34" transform="translate(50 0)"/>
       <use xlink:href="#TimesNewRomanPSMT-2e" transform="translate(100 0)"/>
       <use xlink:href="#TimesNewRomanPSMT-35" transform="translate(125 0)"/>
      </g>
     </g>
     <g id="text_29">
      <!-- 97.0 -->
      <g style="fill: #c62828" transform="translate(37.14479 163.074914) scale(0.15 -0.15)">
       <use xlink:href="#TimesNewRomanPSMT-39"/>
       <use xlink:href="#TimesNewRomanPSMT-37" transform="translate(50 0)"/>
       <use xlink:href="#TimesNewRomanPSMT-2e" transform="translate(100 0)"/>
       <use xlink:href="#TimesNewRomanPSMT-30" transform="translate(125 0)"/>
      </g>
     </g>
     <g id="text_30">
      <!-- 96.1 -->
      <g style="fill: #c62828" transform="translate(67.971563 273.03886) scale(0.15 -0.15)">
       <use xlink:href="#TimesNewRomanPSMT-39"/>
       <use xlink:href="#TimesNewRomanPSMT-36" transform="translate(50 0)"/>
       <use xlink:href="#TimesNewRomanPSMT-2e" transform="translate(100 0)"/>
       <use xlink:href="#TimesNewRomanPSMT-31" transform="translate(125 0)"/>
      </g>
     </g>
     <g id="text_31">
      <!-- 98.2 -->
      <g style="fill: #c62828" transform="translate(168.318881 335.826608) scale(0.15 -0.15)">
       <use xlink:href="#TimesNewRomanPSMT-39"/>
       <use xlink:href="#TimesNewRomanPSMT-38" transform="translate(50 0)"/>
       <use xlink:href="#TimesNewRomanPSMT-2e" transform="translate(100 0)"/>
       <use xlink:href="#TimesNewRomanPSMT-32" transform="translate(125 0)"/>
      </g>
     </g>
     <g id="text_32">
      <!-- 97.6 -->
      <g style="fill: #c62828" transform="translate(276.743092 279.479967) scale(0.15 -0.15)">
       <use xlink:href="#TimesNewRomanPSMT-39"/>
       <use xlink:href="#TimesNewRomanPSMT-37" transform="translate(50 0)"/>
       <use xlink:href="#TimesNewRomanPSMT-2e" transform="translate(100 0)"/>
       <use xlink:href="#TimesNewRomanPSMT-36" transform="translate(125 0)"/>
      </g>
     </g>
     <g id="text_33">
      <!-- Image-AP -->
      <g transform="translate(148.565131 18.28) scale(0.16 -0.16)">
       <defs>
        <path id="TimesNewRomanPSMT-49" d="M 1975 116 
L 1975 0 
L 159 0 
L 159 116 
L 309 116 
Q 572 116 691 269 
Q 766 369 766 750 
L 766 3488 
Q 766 3809 725 3913 
Q 694 3991 597 4047 
Q 459 4122 309 4122 
L 159 4122 
L 159 4238 
L 1975 4238 
L 1975 4122 
L 1822 4122 
Q 1563 4122 1444 3969 
Q 1366 3869 1366 3488 
L 1366 750 
Q 1366 428 1406 325 
Q 1438 247 1538 191 
Q 1672 116 1822 116 
L 1975 116 
z
" transform="scale(0.015625)"/>
        <path id="TimesNewRomanPSMT-6d" d="M 1050 2338 
Q 1363 2650 1419 2697 
Q 1559 2816 1721 2881 
Q 1884 2947 2044 2947 
Q 2313 2947 2506 2790 
Q 2700 2634 2766 2338 
Q 3088 2713 3309 2830 
Q 3531 2947 3766 2947 
Q 3994 2947 4170 2830 
Q 4347 2713 4450 2447 
Q 4519 2266 4519 1878 
L 4519 647 
Q 4519 378 4559 278 
Q 4591 209 4675 161 
Q 4759 113 4950 113 
L 4950 0 
L 3538 0 
L 3538 113 
L 3597 113 
Q 3781 113 3884 184 
Q 3956 234 3988 344 
Q 4000 397 4000 647 
L 4000 1878 
Q 4000 2228 3916 2372 
Q 3794 2572 3525 2572 
Q 3359 2572 3192 2489 
Q 3025 2406 2788 2181 
L 2781 2147 
L 2788 2013 
L 2788 647 
Q 2788 353 2820 281 
Q 2853 209 2943 161 
Q 3034 113 3253 113 
L 3253 0 
L 1806 0 
L 1806 113 
Q 2044 113 2133 169 
Q 2222 225 2256 338 
Q 2272 391 2272 647 
L 2272 1878 
Q 2272 2228 2169 2381 
Q 2031 2581 1784 2581 
Q 1616 2581 1450 2491 
Q 1191 2353 1050 2181 
L 1050 647 
Q 1050 366 1089 281 
Q 1128 197 1204 155 
Q 1281 113 1516 113 
L 1516 0 
L 100 0 
L 100 113 
Q 297 113 375 155 
Q 453 197 493 289 
Q 534 381 534 647 
L 534 1741 
Q 534 2213 506 2350 
Q 484 2453 437 2492 
Q 391 2531 309 2531 
Q 222 2531 100 2484 
L 53 2597 
L 916 2947 
L 1050 2947 
L 1050 2338 
z
" transform="scale(0.015625)"/>
        <path id="TimesNewRomanPSMT-61" d="M 1822 413 
Q 1381 72 1269 19 
Q 1100 -59 909 -59 
Q 613 -59 420 144 
Q 228 347 228 678 
Q 228 888 322 1041 
Q 450 1253 767 1440 
Q 1084 1628 1822 1897 
L 1822 2009 
Q 1822 2438 1686 2597 
Q 1550 2756 1291 2756 
Q 1094 2756 978 2650 
Q 859 2544 859 2406 
L 866 2225 
Q 866 2081 792 2003 
Q 719 1925 600 1925 
Q 484 1925 411 2006 
Q 338 2088 338 2228 
Q 338 2497 613 2722 
Q 888 2947 1384 2947 
Q 1766 2947 2009 2819 
Q 2194 2722 2281 2516 
Q 2338 2381 2338 1966 
L 2338 994 
Q 2338 584 2353 492 
Q 2369 400 2405 369 
Q 2441 338 2488 338 
Q 2538 338 2575 359 
Q 2641 400 2828 588 
L 2828 413 
Q 2478 -56 2159 -56 
Q 2006 -56 1915 50 
Q 1825 156 1822 413 
z
M 1822 616 
L 1822 1706 
Q 1350 1519 1213 1441 
Q 966 1303 859 1153 
Q 753 1003 753 825 
Q 753 600 887 451 
Q 1022 303 1197 303 
Q 1434 303 1822 616 
z
" transform="scale(0.015625)"/>
        <path id="TimesNewRomanPSMT-67" d="M 966 1044 
Q 703 1172 562 1401 
Q 422 1631 422 1909 
Q 422 2334 742 2640 
Q 1063 2947 1563 2947 
Q 1972 2947 2272 2747 
L 2878 2747 
Q 3013 2747 3034 2739 
Q 3056 2731 3066 2713 
Q 3084 2684 3084 2613 
Q 3084 2531 3069 2500 
Q 3059 2484 3036 2475 
Q 3013 2466 2878 2466 
L 2506 2466 
Q 2681 2241 2681 1891 
Q 2681 1491 2375 1206 
Q 2069 922 1553 922 
Q 1341 922 1119 984 
Q 981 866 932 777 
Q 884 688 884 625 
Q 884 572 936 522 
Q 988 472 1138 450 
Q 1225 438 1575 428 
Q 2219 413 2409 384 
Q 2700 344 2873 169 
Q 3047 -6 3047 -263 
Q 3047 -616 2716 -925 
Q 2228 -1381 1444 -1381 
Q 841 -1381 425 -1109 
Q 191 -953 191 -784 
Q 191 -709 225 -634 
Q 278 -519 444 -313 
Q 466 -284 763 25 
Q 600 122 533 198 
Q 466 275 466 372 
Q 466 481 555 628 
Q 644 775 966 1044 
z
M 1509 2797 
Q 1278 2797 1122 2612 
Q 966 2428 966 2047 
Q 966 1553 1178 1281 
Q 1341 1075 1591 1075 
Q 1828 1075 1981 1253 
Q 2134 1431 2134 1813 
Q 2134 2309 1919 2591 
Q 1759 2797 1509 2797 
z
M 934 0 
Q 788 -159 713 -296 
Q 638 -434 638 -550 
Q 638 -700 819 -813 
Q 1131 -1006 1722 -1006 
Q 2284 -1006 2551 -807 
Q 2819 -609 2819 -384 
Q 2819 -222 2659 -153 
Q 2497 -84 2016 -72 
Q 1313 -53 934 0 
z
" transform="scale(0.015625)"/>
        <path id="TimesNewRomanPSMT-2d" d="M 259 1672 
L 1875 1672 
L 1875 1200 
L 259 1200 
L 259 1672 
z
" transform="scale(0.015625)"/>
       </defs>
       <use xlink:href="#TimesNewRomanPSMT-49"/>
       <use xlink:href="#TimesNewRomanPSMT-6d" transform="translate(33.300781 0)"/>
       <use xlink:href="#TimesNewRomanPSMT-61" transform="translate(111.083984 0)"/>
       <use xlink:href="#TimesNewRomanPSMT-67" transform="translate(155.46875 0)"/>
       <use xlink:href="#TimesNewRomanPSMT-65" transform="translate(205.46875 0)"/>
       <use xlink:href="#TimesNewRomanPSMT-2d" transform="translate(249.853516 0)"/>
       <use xlink:href="#TimesNewRomanPSMT-41" transform="translate(283.154297 0)"/>
       <use xlink:href="#TimesNewRomanPSMT-50" transform="translate(355.371094 0)"/>
      </g>
     </g>
    </g>
    <g id="axes_2">
     <g id="patch_7">
      <path d="M 674.888943 189.411029 
C 674.888943 171.178062 671.297446 153.122388 664.319992 136.277324 
C 657.342538 119.432259 647.11482 104.125398 634.222166 91.232743 
C 621.329512 78.340089 606.022651 68.112372 589.177586 61.134917 
C 572.332521 54.157463 554.276847 50.565966 536.043881 50.565966 
C 517.810914 50.565966 499.75524 54.157463 482.910176 61.134917 
C 466.065111 68.112372 450.75825 78.340089 437.865596 91.232743 
C 424.972941 104.125398 414.745224 119.432259 407.76777 136.277324 
C 400.790315 153.122388 397.198818 171.178062 397.198818 189.411029 
C 397.198818 207.643995 400.790315 225.699669 407.76777 242.544734 
C 414.745224 259.389798 424.972941 274.69666 437.865596 287.589314 
C 450.75825 300.481968 466.065111 310.709686 482.910176 317.68714 
C 499.75524 324.664594 517.810914 328.256091 536.043881 328.256091 
C 554.276847 328.256091 572.332521 324.664594 589.177586 317.68714 
C 606.022651 310.709686 621.329512 300.481968 634.222166 287.589314 
C 647.11482 274.69666 657.342538 259.389798 664.319992 242.544734 
C 671.297446 225.699669 674.888943 207.643995 674.888943 189.411029 
M 536.043881 189.411029 
C 536.043881 189.411029 536.043881 189.411029 536.043881 189.411029 
C 536.043881 189.411029 536.043881 189.411029 536.043881 189.411029 
C 536.043881 189.411029 536.043881 189.411029 536.043881 189.411029 
C 536.043881 189.411029 536.043881 189.411029 536.043881 189.411029 
C 536.043881 189.411029 536.043881 189.411029 536.043881 189.411029 
C 536.043881 189.411029 536.043881 189.411029 536.043881 189.411029 
C 536.043881 189.411029 536.043881 189.411029 536.043881 189.411029 
C 536.043881 189.411029 536.043881 189.411029 536.043881 189.411029 
C 536.043881 189.411029 536.043881 189.411029 536.043881 189.411029 
C 536.043881 189.411029 536.043881 189.411029 536.043881 189.411029 
C 536.043881 189.411029 536.043881 189.411029 536.043881 189.411029 
C 536.043881 189.411029 536.043881 189.411029 536.043881 189.411029 
C 536.043881 189.411029 536.043881 189.411029 536.043881 189.411029 
C 536.043881 189.411029 536.043881 189.411029 536.043881 189.411029 
C 536.043881 189.411029 536.043881 189.411029 536.043881 189.411029 
C 536.043881 189.411029 536.043881 189.411029 536.043881 189.411029 
z
" style="fill: #ffffff"/>
     </g>
     <g id="patch_8">
      <path d="M 623.995737 169.336591 
L 567.67023 123.738237 
L 525.997864 168.55026 
L 536.043881 189.411029 
L 495.414281 221.812053 
L 536.043881 279.624731 
L 559.509821 208.124492 
L 623.995737 169.336591 
z
" clip-path="url(#p5e99d75388)" style="fill: #ea944c; opacity: 0.1; stroke: #ea944c; stroke-linejoin: miter"/>
     </g>
     <g id="patch_9">
      <path d="M 647.572186 163.955421 
L 586.9437 83.716465 
L 500.696784 116.012026 
L 444.915056 168.611469 
L 441.241481 265.01342 
L 536.043881 312.897465 
L 617.973536 254.747748 
L 647.572186 163.955421 
z
" clip-path="url(#p5e99d75388)" style="fill: #47aa47; opacity: 0.1; stroke: #47aa47; stroke-linejoin: miter"/>
     </g>
     <g id="patch_10">
      <path d="M 653.591704 162.581505 
L 590.292372 76.762876 
L 478.669962 70.272858 
L 424.849994 164.03175 
L 437.486931 268.007574 
L 536.043881 319.243296 
L 626.957639 261.912332 
L 653.591704 162.581505 
z
" clip-path="url(#p5e99d75388)" style="fill: #c62828; opacity: 0.15; stroke: #c62828; stroke-linejoin: miter"/>
     </g>
     <g id="matplotlib.axis_3">
      <g id="xtick_8">
       <g id="line2d_15">
        <path d="M 536.043881 189.411029 
L 671.407808 158.515096 
" clip-path="url(#p5e99d75388)" style="fill: none; stroke: #808080; stroke-opacity: 0.4; stroke-width: 0.5; stroke-linecap: square"/>
       </g>
       <g id="text_34">
        <!-- VisA -->
        <g transform="translate(675.085809 157.767481) scale(0.15 -0.15)">
         <use xlink:href="#TimesNewRomanPSMT-56"/>
         <use xlink:href="#TimesNewRomanPSMT-69" transform="translate(66.216797 0)"/>
         <use xlink:href="#TimesNewRomanPSMT-73" transform="translate(94 0)"/>
         <use xlink:href="#TimesNewRomanPSMT-41" transform="translate(132.916016 0)"/>
        </g>
       </g>
      </g>
      <g id="xtick_9">
       <g id="line2d_16">
        <path d="M 536.043881 189.411029 
L 596.286496 64.31595 
" clip-path="url(#p5e99d75388)" style="fill: none; stroke: #808080; stroke-opacity: 0.4; stroke-width: 0.5; stroke-linecap: square"/>
       </g>
       <g id="text_35">
        <!-- MPDD -->
        <g transform="translate(583.097916 50.302098) scale(0.15 -0.15)">
         <use xlink:href="#TimesNewRomanPSMT-4d"/>
         <use xlink:href="#TimesNewRomanPSMT-50" transform="translate(88.916016 0)"/>
         <use xlink:href="#TimesNewRomanPSMT-44" transform="translate(144.53125 0)"/>
         <use xlink:href="#TimesNewRomanPSMT-44" transform="translate(216.748047 0)"/>
        </g>
       </g>
      </g>
      <g id="xtick_10">
       <g id="line2d_17">
        <path d="M 536.043881 189.411029 
L 475.801266 64.31595 
" clip-path="url(#p5e99d75388)" style="fill: none; stroke: #808080; stroke-opacity: 0.4; stroke-width: 0.5; stroke-linecap: square"/>
       </g>
       <g id="text_36">
        <!-- KSDD -->
        <g transform="translate(446.897267 50.302098) scale(0.15 -0.15)">
         <use xlink:href="#TimesNewRomanPSMT-4b"/>
         <use xlink:href="#TimesNewRomanPSMT-53" transform="translate(72.216797 0)"/>
         <use xlink:href="#TimesNewRomanPSMT-44" transform="translate(127.832031 0)"/>
         <use xlink:href="#TimesNewRomanPSMT-44" transform="translate(200.048828 0)"/>
        </g>
       </g>
      </g>
      <g id="xtick_11">
       <g id="line2d_18">
        <path d="M 536.043881 189.411029 
L 400.679954 158.515096 
" clip-path="url(#p5e99d75388)" style="fill: none; stroke: #808080; stroke-opacity: 0.4; stroke-width: 0.5; stroke-linecap: square"/>
       </g>
       <g id="text_37">
        <!-- BTAD -->
        <g transform="translate(361.8 157.767481) scale(0.15 -0.15)">
         <use xlink:href="#TimesNewRomanPSMT-42"/>
         <use xlink:href="#TimesNewRomanPSMT-54" transform="translate(66.699219 0)"/>
         <use xlink:href="#TimesNewRomanPSMT-41" transform="translate(119.783203 0)"/>
         <use xlink:href="#TimesNewRomanPSMT-44" transform="translate(192 0)"/>
        </g>
       </g>
      </g>
      <g id="xtick_12">
       <g id="line2d_19">
        <path d="M 536.043881 189.411029 
L 427.49044 275.979509 
" clip-path="url(#p5e99d75388)" style="fill: none; stroke: #808080; stroke-opacity: 0.4; stroke-width: 0.5; stroke-linecap: square"/>
       </g>
       <g id="text_38">
        <!-- DAGM -->
        <g transform="translate(389.284302 291.774621) scale(0.15 -0.15)">
         <use xlink:href="#TimesNewRomanPSMT-44"/>
         <use xlink:href="#TimesNewRomanPSMT-41" transform="translate(72.216797 0)"/>
         <use xlink:href="#TimesNewRomanPSMT-47" transform="translate(144.433594 0)"/>
         <use xlink:href="#TimesNewRomanPSMT-4d" transform="translate(216.650391 0)"/>
        </g>
       </g>
      </g>
      <g id="xtick_13">
       <g id="line2d_20">
        <path d="M 536.043881 189.411029 
L 536.043881 328.256091 
" clip-path="url(#p5e99d75388)" style="fill: none; stroke: #808080; stroke-opacity: 0.4; stroke-width: 0.5; stroke-linecap: square"/>
       </g>
       <g id="text_39">
        <!-- DTD -->
        <g transform="translate(520.630209 351.413409) scale(0.15 -0.15)">
         <use xlink:href="#TimesNewRomanPSMT-44"/>
         <use xlink:href="#TimesNewRomanPSMT-54" transform="translate(72.216797 0)"/>
         <use xlink:href="#TimesNewRomanPSMT-44" transform="translate(133.300781 0)"/>
        </g>
       </g>
      </g>
      <g id="xtick_14">
       <g id="line2d_21">
        <path d="M 536.043881 189.411029 
L 644.597322 275.979509 
" clip-path="url(#p5e99d75388)" style="fill: none; stroke: #808080; stroke-opacity: 0.4; stroke-width: 0.5; stroke-linecap: square"/>
       </g>
       <g id="text_40">
        <!-- MVTec -->
        <g transform="translate(637.0851 291.774621) scale(0.15 -0.15)">
         <use xlink:href="#TimesNewRomanPSMT-4d"/>
         <use xlink:href="#TimesNewRomanPSMT-56" transform="translate(88.916016 0)"/>
         <use xlink:href="#TimesNewRomanPSMT-54" transform="translate(161.132812 0)"/>
         <use xlink:href="#TimesNewRomanPSMT-65" transform="translate(215.216797 0)"/>
         <use xlink:href="#TimesNewRomanPSMT-63" transform="translate(259.601562 0)"/>
        </g>
       </g>
      </g>
     </g>
     <g id="matplotlib.axis_4">
      <g id="ytick_5">
       <g id="line2d_22">
        <path d="M 569.102229 189.411029 
C 569.102229 185.069846 568.247111 180.770876 566.585812 176.760146 
C 564.924514 172.749417 562.489343 169.104926 559.419663 166.035246 
C 556.349983 162.965567 552.705493 160.530396 548.694763 158.869097 
C 544.684033 157.207799 540.385063 156.35268 536.043881 156.35268 
C 531.702698 156.35268 527.403728 157.207799 523.392999 158.869097 
C 519.382269 160.530396 515.737778 162.965567 512.668099 166.035246 
C 509.598419 169.104926 507.163248 172.749417 505.50195 176.760146 
C 503.840651 180.770876 502.985533 185.069846 502.985533 189.411029 
C 502.985533 193.752211 503.840651 198.051181 505.50195 202.061911 
C 507.163248 206.07264 509.598419 209.717131 512.668099 212.786811 
C 515.737778 215.85649 519.382269 218.291661 523.392999 219.95296 
C 527.403728 221.614259 531.702698 222.469377 536.043881 222.469377 
C 540.385063 222.469377 544.684033 221.614259 548.694763 219.95296 
C 552.705493 218.291661 556.349983 215.85649 559.419663 212.786811 
C 562.489343 209.717131 564.924514 206.07264 566.585812 202.061911 
C 568.247111 198.051181 569.102229 193.752211 569.102229 189.411029 
" clip-path="url(#p5e99d75388)" style="fill: none; stroke: #666666; stroke-opacity: 0.4; stroke-width: 0.3; stroke-linecap: square"/>
       </g>
       <g id="text_41">
        <!-- 25 -->
        <g style="fill: #ffffff" transform="translate(566.585812 176.54624) scale(0.01 -0.01)">
         <use xlink:href="#TimesNewRomanPSMT-32"/>
         <use xlink:href="#TimesNewRomanPSMT-35" transform="translate(50 0)"/>
        </g>
       </g>
      </g>
      <g id="ytick_6">
       <g id="line2d_23">
        <path d="M 602.160577 189.411029 
C 602.160577 180.728664 600.450341 172.130724 597.127743 164.109264 
C 593.805146 156.087805 588.934804 148.798823 582.795445 142.659464 
C 576.656086 136.520105 569.367105 131.649763 561.345645 128.327166 
C 553.324186 125.004569 544.726246 123.294332 536.043881 123.294332 
C 527.361516 123.294332 518.763576 125.004569 510.742117 128.327166 
C 502.720657 131.649763 495.431676 136.520105 489.292317 142.659464 
C 483.152957 148.798823 478.282616 156.087805 474.960018 164.109264 
C 471.637421 172.130724 469.927185 180.728664 469.927185 189.411029 
C 469.927185 198.093394 471.637421 206.691334 474.960018 214.712793 
C 478.282616 222.734252 483.152957 230.023234 489.292317 236.162593 
C 495.431676 242.301952 502.720657 247.172294 510.742117 250.494891 
C 518.763576 253.817488 527.361516 255.527725 536.043881 255.527725 
C 544.726246 255.527725 553.324186 253.817488 561.345645 250.494891 
C 569.367105 247.172294 576.656086 242.301952 582.795445 236.162593 
C 588.934804 230.023234 593.805146 222.734252 597.127743 214.712793 
C 600.450341 206.691334 602.160577 198.093394 602.160577 189.411029 
" clip-path="url(#p5e99d75388)" style="fill: none; stroke: #666666; stroke-opacity: 0.4; stroke-width: 0.3; stroke-linecap: square"/>
       </g>
       <g id="text_42">
        <!-- 50 -->
        <g style="fill: #ffffff" transform="translate(597.127743 163.895358) scale(0.01 -0.01)">
         <use xlink:href="#TimesNewRomanPSMT-35"/>
         <use xlink:href="#TimesNewRomanPSMT-30" transform="translate(50 0)"/>
        </g>
       </g>
      </g>
      <g id="ytick_7">
       <g id="line2d_24">
        <path d="M 635.218925 189.411029 
C 635.218925 176.387481 632.653571 163.490571 627.669675 151.458382 
C 622.685779 139.426193 615.380266 128.492721 606.171227 119.283682 
C 596.962189 110.074643 586.028716 102.769131 573.996527 97.785235 
C 561.964338 92.801339 549.067428 90.235984 536.043881 90.235984 
C 523.020333 90.235984 510.123423 92.801339 498.091234 97.785235 
C 486.059045 102.769131 475.125573 110.074643 465.916534 119.283682 
C 456.707496 128.492721 449.401983 139.426193 444.418087 151.458382 
C 439.434191 163.490571 436.868836 176.387481 436.868836 189.411029 
C 436.868836 202.434576 439.434191 215.331486 444.418087 227.363675 
C 449.401983 239.395864 456.707496 250.329336 465.916534 259.538375 
C 475.125573 268.747414 486.059045 276.052927 498.091234 281.036822 
C 510.123423 286.020718 523.020333 288.586073 536.043881 288.586073 
C 549.067428 288.586073 561.964338 286.020718 573.996527 281.036822 
C 586.028716 276.052927 596.962189 268.747414 606.171227 259.538375 
C 615.380266 250.329336 622.685779 239.395864 627.669675 227.363675 
C 632.653571 215.331486 635.218925 202.434576 635.218925 189.411029 
" clip-path="url(#p5e99d75388)" style="fill: none; stroke: #666666; stroke-opacity: 0.4; stroke-width: 0.3; stroke-linecap: square"/>
       </g>
       <g id="text_43">
        <!-- 75 -->
        <g style="fill: #ffffff" transform="translate(627.669675 151.244476) scale(0.01 -0.01)">
         <use xlink:href="#TimesNewRomanPSMT-37"/>
         <use xlink:href="#TimesNewRomanPSMT-35" transform="translate(50 0)"/>
        </g>
       </g>
      </g>
      <g id="ytick_8">
       <g id="line2d_25">
        <path d="M 668.277274 189.411029 
C 668.277274 172.046299 664.8568 154.850419 658.211606 138.8075 
C 651.566412 122.764581 641.825728 108.186618 629.54701 95.9079 
C 617.268291 83.629182 602.690328 73.888498 586.64741 67.243304 
C 570.604491 60.598109 553.408611 57.177636 536.043881 57.177636 
C 518.679151 57.177636 501.483271 60.598109 485.440352 67.243304 
C 469.397434 73.888498 454.819471 83.629182 442.540752 95.9079 
C 430.262034 108.186618 420.52135 122.764581 413.876156 138.8075 
C 407.230961 154.850419 403.810488 172.046299 403.810488 189.411029 
C 403.810488 206.775759 407.230961 223.971639 413.876156 240.014557 
C 420.52135 256.057476 430.262034 270.635439 442.540752 282.914157 
C 454.819471 295.192876 469.397434 304.933559 485.440352 311.578754 
C 501.483271 318.223948 518.679151 321.644421 536.043881 321.644421 
C 553.408611 321.644421 570.604491 318.223948 586.64741 311.578754 
C 602.690328 304.933559 617.268291 295.192876 629.54701 282.914157 
C 641.825728 270.635439 651.566412 256.057476 658.211606 240.014557 
C 664.8568 223.971639 668.277274 206.775759 668.277274 189.411029 
" clip-path="url(#p5e99d75388)" style="fill: none; stroke: #666666; stroke-opacity: 0.4; stroke-width: 0.3; stroke-linecap: square"/>
       </g>
       <g id="text_44">
        <!-- 100 -->
        <g style="fill: #ffffff" transform="translate(658.211606 138.593594) scale(0.01 -0.01)">
         <use xlink:href="#TimesNewRomanPSMT-31"/>
         <use xlink:href="#TimesNewRomanPSMT-30" transform="translate(50 0)"/>
         <use xlink:href="#TimesNewRomanPSMT-30" transform="translate(100 0)"/>
        </g>
       </g>
      </g>
     </g>
     <g id="line2d_26">
      <path d="M 623.995737 169.336591 
L 567.67023 123.738237 
L 525.997864 168.55026 
L 536.043881 189.411029 
L 495.414281 221.812053 
L 536.043881 279.624731 
L 559.509821 208.124492 
L 623.995737 169.336591 
" clip-path="url(#p5e99d75388)" style="fill: none; stroke: #ea944c; stroke-width: 1.2; stroke-linecap: square"/>
     </g>
     <g id="line2d_27">
      <path d="M 647.572186 163.955421 
L 586.9437 83.716465 
L 500.696784 116.012026 
L 444.915056 168.611469 
L 441.241481 265.01342 
L 536.043881 312.897465 
L 617.973536 254.747748 
L 647.572186 163.955421 
" clip-path="url(#p5e99d75388)" style="fill: none; stroke: #47aa47; stroke-width: 1.2; stroke-linecap: square"/>
     </g>
     <g id="line2d_28">
      <path d="M 653.591704 162.581505 
L 590.292372 76.762876 
L 478.669962 70.272858 
L 424.849994 164.03175 
L 437.486931 268.007574 
L 536.043881 319.243296 
L 626.957639 261.912332 
L 653.591704 162.581505 
" clip-path="url(#p5e99d75388)" style="fill: none; stroke: #c62828; stroke-width: 1.2; stroke-linecap: square"/>
     </g>
     <g id="patch_11">
      <path d="M 674.888943 189.411029 
C 674.888943 171.178062 671.297446 153.122388 664.319992 136.277324 
C 657.342538 119.432259 647.11482 104.125398 634.222166 91.232743 
C 621.329512 78.340089 606.022651 68.112372 589.177586 61.134917 
C 572.332521 54.157463 554.276847 50.565966 536.043881 50.565966 
C 517.810914 50.565966 499.75524 54.157463 482.910176 61.134917 
C 466.065111 68.112372 450.75825 78.340089 437.865596 91.232743 
C 424.972941 104.125398 414.745224 119.432259 407.76777 136.277324 
C 400.790315 153.122388 397.198818 171.178062 397.198818 189.411029 
C 397.198818 207.643995 400.790315 225.699669 407.76777 242.544734 
C 414.745224 259.389798 424.972941 274.69666 437.865596 287.589314 
C 450.75825 300.481968 466.065111 310.709686 482.910176 317.68714 
C 499.75524 324.664594 517.810914 328.256091 536.043881 328.256091 
C 554.276847 328.256091 572.332521 324.664594 589.177586 317.68714 
C 606.022651 310.709686 621.329512 300.481968 634.222166 287.589314 
C 647.11482 274.69666 657.342538 259.389798 664.319992 242.544734 
C 671.297446 225.699669 674.888943 207.643995 674.888943 189.411029 
" style="fill: none; opacity: 0.6; stroke-dasharray: 1.85,0.8; stroke-dashoffset: 0; stroke: #ffffff; stroke-width: 0.5; stroke-linejoin: miter; stroke-linecap: square"/>
     </g>
     <g id="text_45">
      <!-- 72.9 -->
      <g style="fill: #ea944c" transform="translate(597.978935 175.882577) scale(0.15 -0.15)">
       <use xlink:href="#TimesNewRomanPSMT-37"/>
       <use xlink:href="#TimesNewRomanPSMT-32" transform="translate(50 0)"/>
       <use xlink:href="#TimesNewRomanPSMT-2e" transform="translate(100 0)"/>
       <use xlink:href="#TimesNewRomanPSMT-39" transform="translate(125 0)"/>
      </g>
     </g>
     <g id="text_46">
      <!-- 62.8 -->
      <g style="fill: #ea944c" transform="translate(548.807839 139.25557) scale(0.15 -0.15)">
       <use xlink:href="#TimesNewRomanPSMT-36"/>
       <use xlink:href="#TimesNewRomanPSMT-32" transform="translate(50 0)"/>
       <use xlink:href="#TimesNewRomanPSMT-2e" transform="translate(100 0)"/>
       <use xlink:href="#TimesNewRomanPSMT-38" transform="translate(125 0)"/>
      </g>
     </g>
     <g id="text_47">
      <!-- 33.8 -->
      <g style="fill: #ea944c" transform="translate(518.610256 184.067592) scale(0.15 -0.15)">
       <use xlink:href="#TimesNewRomanPSMT-33"/>
       <use xlink:href="#TimesNewRomanPSMT-33" transform="translate(50 0)"/>
       <use xlink:href="#TimesNewRomanPSMT-2e" transform="translate(100 0)"/>
       <use xlink:href="#TimesNewRomanPSMT-38" transform="translate(125 0)"/>
      </g>
     </g>
     <g id="text_48">
      <g id="text_49">
       <!-- 50.6 -->
       <g style="fill: #ea944c" transform="translate(492.627704 217.170952) scale(0.15 -0.15)">
        <use xlink:href="#TimesNewRomanPSMT-35"/>
        <use xlink:href="#TimesNewRomanPSMT-30" transform="translate(50 0)"/>
        <use xlink:href="#TimesNewRomanPSMT-2e" transform="translate(100 0)"/>
        <use xlink:href="#TimesNewRomanPSMT-36" transform="translate(125 0)"/>
       </g>
      </g>
      <g id="text_50">
       <!-- 72.9 -->
       <g style="fill: #ea944c" transform="translate(522.918881 270.004907) scale(0.15 -0.15)">
        <use xlink:href="#TimesNewRomanPSMT-37"/>
        <use xlink:href="#TimesNewRomanPSMT-32" transform="translate(50 0)"/>
        <use xlink:href="#TimesNewRomanPSMT-2e" transform="translate(100 0)"/>
        <use xlink:href="#TimesNewRomanPSMT-39" transform="translate(125 0)"/>
       </g>
      </g>
      <g id="text_51">
       <!-- 37.8 -->
       <g style="fill: #ea944c" transform="translate(536.046399 203.48339) scale(0.15 -0.15)">
        <use xlink:href="#TimesNewRomanPSMT-33"/>
        <use xlink:href="#TimesNewRomanPSMT-37" transform="translate(50 0)"/>
        <use xlink:href="#TimesNewRomanPSMT-2e" transform="translate(100 0)"/>
        <use xlink:href="#TimesNewRomanPSMT-38" transform="translate(125 0)"/>
       </g>
      </g>
      <g id="text_52">
       <!-- 87.0 -->
       <g style="fill: #47aa47" transform="translate(621.555383 170.501406) scale(0.15 -0.15)">
        <use xlink:href="#TimesNewRomanPSMT-38"/>
        <use xlink:href="#TimesNewRomanPSMT-37" transform="translate(50 0)"/>
        <use xlink:href="#TimesNewRomanPSMT-2e" transform="translate(100 0)"/>
        <use xlink:href="#TimesNewRomanPSMT-30" transform="translate(125 0)"/>
       </g>
      </g>
      <g id="text_53">
       <!-- 88.7 -->
       <g style="fill: #47aa47" transform="translate(568.081308 99.233798) scale(0.15 -0.15)">
        <use xlink:href="#TimesNewRomanPSMT-38"/>
        <use xlink:href="#TimesNewRomanPSMT-38" transform="translate(50 0)"/>
        <use xlink:href="#TimesNewRomanPSMT-2e" transform="translate(100 0)"/>
        <use xlink:href="#TimesNewRomanPSMT-37" transform="translate(125 0)"/>
       </g>
      </g>
      <g id="text_54">
       <!-- 67.8 -->
       <g style="fill: #47aa47" transform="translate(493.309176 131.529359) scale(0.15 -0.15)">
        <use xlink:href="#TimesNewRomanPSMT-36"/>
        <use xlink:href="#TimesNewRomanPSMT-37" transform="translate(50 0)"/>
        <use xlink:href="#TimesNewRomanPSMT-2e" transform="translate(100 0)"/>
        <use xlink:href="#TimesNewRomanPSMT-38" transform="translate(125 0)"/>
       </g>
      </g>
      <g id="text_55">
       <!-- 74.8 -->
       <g style="fill: #47aa47" transform="translate(444.681859 175.157454) scale(0.15 -0.15)">
        <use xlink:href="#TimesNewRomanPSMT-37"/>
        <use xlink:href="#TimesNewRomanPSMT-34" transform="translate(50 0)"/>
        <use xlink:href="#TimesNewRomanPSMT-2e" transform="translate(100 0)"/>
        <use xlink:href="#TimesNewRomanPSMT-38" transform="translate(125 0)"/>
       </g>
      </g>
      <g id="text_56">
       <!-- 91.0 -->
       <g style="fill: #47aa47" transform="translate(438.454904 260.372318) scale(0.15 -0.15)">
        <use xlink:href="#TimesNewRomanPSMT-39"/>
        <use xlink:href="#TimesNewRomanPSMT-31" transform="translate(50 0)"/>
        <use xlink:href="#TimesNewRomanPSMT-2e" transform="translate(100 0)"/>
        <use xlink:href="#TimesNewRomanPSMT-30" transform="translate(125 0)"/>
       </g>
      </g>
      <g id="text_57">
       <!-- 92.3 -->
       <g style="fill: #47aa47" transform="translate(522.918881 303.277642) scale(0.15 -0.15)">
        <use xlink:href="#TimesNewRomanPSMT-39"/>
        <use xlink:href="#TimesNewRomanPSMT-32" transform="translate(50 0)"/>
        <use xlink:href="#TimesNewRomanPSMT-2e" transform="translate(100 0)"/>
        <use xlink:href="#TimesNewRomanPSMT-33" transform="translate(125 0)"/>
       </g>
      </g>
      <g id="text_58">
       <!-- 81.4 -->
       <g style="fill: #47aa47" transform="translate(594.510113 250.106647) scale(0.15 -0.15)">
        <use xlink:href="#TimesNewRomanPSMT-38"/>
        <use xlink:href="#TimesNewRomanPSMT-31" transform="translate(50 0)"/>
        <use xlink:href="#TimesNewRomanPSMT-2e" transform="translate(100 0)"/>
        <use xlink:href="#TimesNewRomanPSMT-34" transform="translate(125 0)"/>
       </g>
      </g>
      <g id="text_59">
       <!-- 90.6 -->
       <g style="fill: #c62828" transform="translate(650.780146 163.831045) scale(0.15 -0.15)">
        <use xlink:href="#TimesNewRomanPSMT-39"/>
        <use xlink:href="#TimesNewRomanPSMT-30" transform="translate(50 0)"/>
        <use xlink:href="#TimesNewRomanPSMT-2e" transform="translate(100 0)"/>
        <use xlink:href="#TimesNewRomanPSMT-36" transform="translate(125 0)"/>
       </g>
      </g>
      <g id="text_60">
       <!-- 93.2 -->
       <g style="fill: #c62828" transform="translate(581.757286 70.835338) scale(0.15 -0.15)">
        <use xlink:href="#TimesNewRomanPSMT-39"/>
        <use xlink:href="#TimesNewRomanPSMT-33" transform="translate(50 0)"/>
        <use xlink:href="#TimesNewRomanPSMT-2e" transform="translate(100 0)"/>
        <use xlink:href="#TimesNewRomanPSMT-32" transform="translate(125 0)"/>
       </g>
      </g>
      <g id="text_61">
       <!-- 97.4 -->
       <g style="fill: #c62828" transform="translate(460.955049 64.34532) scale(0.15 -0.15)">
        <use xlink:href="#TimesNewRomanPSMT-39"/>
        <use xlink:href="#TimesNewRomanPSMT-37" transform="translate(50 0)"/>
        <use xlink:href="#TimesNewRomanPSMT-2e" transform="translate(100 0)"/>
        <use xlink:href="#TimesNewRomanPSMT-34" transform="translate(125 0)"/>
       </g>
      </g>
      <g id="text_62">
       <!-- 86.8 -->
       <g style="fill: #c62828" transform="translate(401.411552 165.281289) scale(0.15 -0.15)">
        <use xlink:href="#TimesNewRomanPSMT-38"/>
        <use xlink:href="#TimesNewRomanPSMT-36" transform="translate(50 0)"/>
        <use xlink:href="#TimesNewRomanPSMT-2e" transform="translate(100 0)"/>
        <use xlink:href="#TimesNewRomanPSMT-38" transform="translate(125 0)"/>
       </g>
      </g>
      <g id="text_63">
       <!-- 93.8 -->
       <g style="fill: #c62828" transform="translate(416.091192 278.206783) scale(0.15 -0.15)">
        <use xlink:href="#TimesNewRomanPSMT-39"/>
        <use xlink:href="#TimesNewRomanPSMT-33" transform="translate(50 0)"/>
        <use xlink:href="#TimesNewRomanPSMT-2e" transform="translate(100 0)"/>
        <use xlink:href="#TimesNewRomanPSMT-38" transform="translate(125 0)"/>
       </g>
      </g>
      <g id="text_64">
       <!-- 96.0 -->
       <g style="fill: #c62828" transform="translate(522.918881 333.425483) scale(0.15 -0.15)">
        <use xlink:href="#TimesNewRomanPSMT-39"/>
        <use xlink:href="#TimesNewRomanPSMT-36" transform="translate(50 0)"/>
        <use xlink:href="#TimesNewRomanPSMT-2e" transform="translate(100 0)"/>
        <use xlink:href="#TimesNewRomanPSMT-30" transform="translate(125 0)"/>
       </g>
      </g>
      <g id="text_65">
       <!-- 88.1 -->
       <g style="fill: #c62828" transform="translate(622.103378 272.111541) scale(0.15 -0.15)">
        <use xlink:href="#TimesNewRomanPSMT-38"/>
        <use xlink:href="#TimesNewRomanPSMT-38" transform="translate(50 0)"/>
        <use xlink:href="#TimesNewRomanPSMT-2e" transform="translate(100 0)"/>
        <use xlink:href="#TimesNewRomanPSMT-31" transform="translate(125 0)"/>
       </g>
      </g>
      <g id="text_66">
       <!-- Pixel-AUPRO -->
       <g transform="translate(489.817631 18.31) scale(0.16 -0.16)">
        <defs>
         <path id="TimesNewRomanPSMT-78" d="M 84 2863 
L 1431 2863 
L 1431 2747 
Q 1303 2747 1251 2703 
Q 1200 2659 1200 2588 
Q 1200 2513 1309 2356 
Q 1344 2306 1413 2200 
L 1616 1875 
L 1850 2200 
Q 2075 2509 2075 2591 
Q 2075 2656 2022 2701 
Q 1969 2747 1850 2747 
L 1850 2863 
L 2819 2863 
L 2819 2747 
Q 2666 2738 2553 2663 
Q 2400 2556 2134 2200 
L 1744 1678 
L 2456 653 
Q 2719 275 2831 198 
Q 2944 122 3122 113 
L 3122 0 
L 1772 0 
L 1772 113 
Q 1913 113 1991 175 
Q 2050 219 2050 291 
Q 2050 363 1850 653 
L 1431 1266 
L 972 653 
Q 759 369 759 316 
Q 759 241 829 180 
Q 900 119 1041 113 
L 1041 0 
L 106 0 
L 106 113 
Q 219 128 303 191 
Q 422 281 703 653 
L 1303 1450 
L 759 2238 
Q 528 2575 401 2661 
Q 275 2747 84 2747 
L 84 2863 
z
" transform="scale(0.015625)"/>
         <path id="TimesNewRomanPSMT-6c" d="M 1184 4444 
L 1184 647 
Q 1184 378 1223 290 
Q 1263 203 1344 158 
Q 1425 113 1647 113 
L 1647 0 
L 244 0 
L 244 113 
Q 441 113 512 153 
Q 584 194 625 287 
Q 666 381 666 647 
L 666 3247 
Q 666 3731 644 3842 
Q 622 3953 573 3993 
Q 525 4034 450 4034 
Q 369 4034 244 3984 
L 191 4094 
L 1044 4444 
L 1184 4444 
z
" transform="scale(0.015625)"/>
         <path id="TimesNewRomanPSMT-55" d="M 3053 4122 
L 3053 4238 
L 4553 4238 
L 4553 4122 
L 4394 4122 
Q 4144 4122 4009 3913 
Q 3944 3816 3944 3463 
L 3944 1744 
Q 3944 1106 3817 754 
Q 3691 403 3320 151 
Q 2950 -100 2313 -100 
Q 1619 -100 1259 140 
Q 900 381 750 788 
Q 650 1066 650 1831 
L 650 3488 
Q 650 3878 542 4000 
Q 434 4122 194 4122 
L 34 4122 
L 34 4238 
L 1866 4238 
L 1866 4122 
L 1703 4122 
Q 1441 4122 1328 3956 
Q 1250 3844 1250 3488 
L 1250 1641 
Q 1250 1394 1295 1075 
Q 1341 756 1459 578 
Q 1578 400 1801 284 
Q 2025 169 2350 169 
Q 2766 169 3094 350 
Q 3422 531 3542 814 
Q 3663 1097 3663 1772 
L 3663 3488 
Q 3663 3884 3575 3984 
Q 3453 4122 3213 4122 
L 3053 4122 
z
" transform="scale(0.015625)"/>
         <path id="TimesNewRomanPSMT-52" d="M 4325 0 
L 3194 0 
L 1759 1981 
Q 1600 1975 1500 1975 
Q 1459 1975 1412 1976 
Q 1366 1978 1316 1981 
L 1316 750 
Q 1316 350 1403 253 
Q 1522 116 1759 116 
L 1925 116 
L 1925 0 
L 109 0 
L 109 116 
L 269 116 
Q 538 116 653 291 
Q 719 388 719 750 
L 719 3488 
Q 719 3888 631 3984 
Q 509 4122 269 4122 
L 109 4122 
L 109 4238 
L 1653 4238 
Q 2328 4238 2648 4139 
Q 2969 4041 3192 3777 
Q 3416 3513 3416 3147 
Q 3416 2756 3161 2468 
Q 2906 2181 2372 2063 
L 3247 847 
Q 3547 428 3762 290 
Q 3978 153 4325 116 
L 4325 0 
z
M 1316 2178 
Q 1375 2178 1419 2176 
Q 1463 2175 1491 2175 
Q 2097 2175 2405 2437 
Q 2713 2700 2713 3106 
Q 2713 3503 2464 3751 
Q 2216 4000 1806 4000 
Q 1625 4000 1316 3941 
L 1316 2178 
z
" transform="scale(0.015625)"/>
         <path id="TimesNewRomanPSMT-4f" d="M 2341 4334 
Q 3166 4334 3770 3707 
Q 4375 3081 4375 2144 
Q 4375 1178 3765 540 
Q 3156 -97 2291 -97 
Q 1416 -97 820 525 
Q 225 1147 225 2134 
Q 225 3144 913 3781 
Q 1509 4334 2341 4334 
z
M 2281 4106 
Q 1713 4106 1369 3684 
Q 941 3159 941 2147 
Q 941 1109 1384 550 
Q 1725 125 2284 125 
Q 2881 125 3270 590 
Q 3659 1056 3659 2059 
Q 3659 3147 3231 3681 
Q 2888 4106 2281 4106 
z
" transform="scale(0.015625)"/>
        </defs>
        <use xlink:href="#TimesNewRomanPSMT-50"/>
        <use xlink:href="#TimesNewRomanPSMT-69" transform="translate(55.615234 0)"/>
        <use xlink:href="#TimesNewRomanPSMT-78" transform="translate(83.398438 0)"/>
        <use xlink:href="#TimesNewRomanPSMT-65" transform="translate(133.398438 0)"/>
        <use xlink:href="#TimesNewRomanPSMT-6c" transform="translate(177.783203 0)"/>
        <use xlink:href="#TimesNewRomanPSMT-2d" transform="translate(205.566406 0)"/>
        <use xlink:href="#TimesNewRomanPSMT-41" transform="translate(238.867188 0)"/>
        <use xlink:href="#TimesNewRomanPSMT-55" transform="translate(311.083984 0)"/>
        <use xlink:href="#TimesNewRomanPSMT-50" transform="translate(383.300781 0)"/>
        <use xlink:href="#TimesNewRomanPSMT-52" transform="translate(438.916016 0)"/>
        <use xlink:href="#TimesNewRomanPSMT-4f" transform="translate(505.615234 0)"/>
       </g>
      </g>
     </g>
     <g id="legend_1">
      <g id="line2d_29">
       <path d="M 283.053881 308.661029 
L 299.053881 308.661029 
L 315.053881 308.661029 
" style="fill: none; stroke: #ea944c; stroke-width: 2; stroke-linecap: square"/>
      </g>
      <g id="text_67">
       <!-- AdaCLIP -->
       <g transform="translate(327.853881 314.261029) scale(0.16 -0.16)">
        <defs>
         <path id="TimesNewRomanPSMT-64" d="M 2222 322 
Q 2013 103 1813 7 
Q 1613 -88 1381 -88 
Q 913 -88 563 304 
Q 213 697 213 1313 
Q 213 1928 600 2439 
Q 988 2950 1597 2950 
Q 1975 2950 2222 2709 
L 2222 3238 
Q 2222 3728 2198 3840 
Q 2175 3953 2125 3993 
Q 2075 4034 2000 4034 
Q 1919 4034 1784 3984 
L 1744 4094 
L 2597 4444 
L 2738 4444 
L 2738 1134 
Q 2738 631 2761 520 
Q 2784 409 2836 365 
Q 2888 322 2956 322 
Q 3041 322 3181 375 
L 3216 266 
L 2366 -88 
L 2222 -88 
L 2222 322 
z
M 2222 541 
L 2222 2016 
Q 2203 2228 2109 2403 
Q 2016 2578 1861 2667 
Q 1706 2756 1559 2756 
Q 1284 2756 1069 2509 
Q 784 2184 784 1559 
Q 784 928 1059 592 
Q 1334 256 1672 256 
Q 1956 256 2222 541 
z
" transform="scale(0.015625)"/>
         <path id="TimesNewRomanPSMT-43" d="M 3853 4334 
L 3950 2894 
L 3853 2894 
Q 3659 3541 3300 3825 
Q 2941 4109 2438 4109 
Q 2016 4109 1675 3895 
Q 1334 3681 1139 3212 
Q 944 2744 944 2047 
Q 944 1472 1128 1050 
Q 1313 628 1683 403 
Q 2053 178 2528 178 
Q 2941 178 3256 354 
Q 3572 531 3950 1056 
L 4047 994 
Q 3728 428 3303 165 
Q 2878 -97 2294 -97 
Q 1241 -97 663 684 
Q 231 1266 231 2053 
Q 231 2688 515 3219 
Q 800 3750 1298 4042 
Q 1797 4334 2388 4334 
Q 2847 4334 3294 4109 
Q 3425 4041 3481 4041 
Q 3566 4041 3628 4100 
Q 3709 4184 3744 4334 
L 3853 4334 
z
" transform="scale(0.015625)"/>
         <path id="TimesNewRomanPSMT-4c" d="M 3669 1172 
L 3772 1150 
L 3409 0 
L 128 0 
L 128 116 
L 288 116 
Q 556 116 672 291 
Q 738 391 738 753 
L 738 3488 
Q 738 3884 650 3984 
Q 528 4122 288 4122 
L 128 4122 
L 128 4238 
L 2047 4238 
L 2047 4122 
Q 1709 4125 1573 4059 
Q 1438 3994 1388 3894 
Q 1338 3794 1338 3416 
L 1338 753 
Q 1338 494 1388 397 
Q 1425 331 1503 300 
Q 1581 269 1991 269 
L 2300 269 
Q 2788 269 2984 341 
Q 3181 413 3343 595 
Q 3506 778 3669 1172 
z
" transform="scale(0.015625)"/>
        </defs>
        <use xlink:href="#TimesNewRomanPSMT-41"/>
        <use xlink:href="#TimesNewRomanPSMT-64" transform="translate(72.216797 0)"/>
        <use xlink:href="#TimesNewRomanPSMT-61" transform="translate(122.216797 0)"/>
        <use xlink:href="#TimesNewRomanPSMT-43" transform="translate(166.601562 0)"/>
        <use xlink:href="#TimesNewRomanPSMT-4c" transform="translate(233.300781 0)"/>
        <use xlink:href="#TimesNewRomanPSMT-49" transform="translate(294.384766 0)"/>
        <use xlink:href="#TimesNewRomanPSMT-50" transform="translate(327.685547 0)"/>
       </g>
      </g>
      <g id="line2d_30">
       <path d="M 283.053881 331.283529 
L 299.053881 331.283529 
L 315.053881 331.283529 
" style="fill: none; stroke: #47aa47; stroke-width: 2; stroke-linecap: square"/>
      </g>
      <g id="text_68">
       <!-- AnomalyCLIP -->
       <g transform="translate(327.853881 336.883529) scale(0.16 -0.16)">
        <defs>
         <path id="TimesNewRomanPSMT-6e" d="M 1034 2341 
Q 1538 2947 1994 2947 
Q 2228 2947 2397 2830 
Q 2566 2713 2666 2444 
Q 2734 2256 2734 1869 
L 2734 647 
Q 2734 375 2778 278 
Q 2813 200 2889 156 
Q 2966 113 3172 113 
L 3172 0 
L 1756 0 
L 1756 113 
L 1816 113 
Q 2016 113 2095 173 
Q 2175 234 2206 353 
Q 2219 400 2219 647 
L 2219 1819 
Q 2219 2209 2117 2386 
Q 2016 2563 1775 2563 
Q 1403 2563 1034 2156 
L 1034 647 
Q 1034 356 1069 288 
Q 1113 197 1189 155 
Q 1266 113 1500 113 
L 1500 0 
L 84 0 
L 84 113 
L 147 113 
Q 366 113 442 223 
Q 519 334 519 647 
L 519 1709 
Q 519 2225 495 2337 
Q 472 2450 423 2490 
Q 375 2531 294 2531 
Q 206 2531 84 2484 
L 38 2597 
L 900 2947 
L 1034 2947 
L 1034 2341 
z
" transform="scale(0.015625)"/>
         <path id="TimesNewRomanPSMT-6f" d="M 1600 2947 
Q 2250 2947 2644 2453 
Q 2978 2031 2978 1484 
Q 2978 1100 2793 706 
Q 2609 313 2286 112 
Q 1963 -88 1566 -88 
Q 919 -88 538 428 
Q 216 863 216 1403 
Q 216 1797 411 2186 
Q 606 2575 925 2761 
Q 1244 2947 1600 2947 
z
M 1503 2744 
Q 1338 2744 1170 2645 
Q 1003 2547 900 2300 
Q 797 2053 797 1666 
Q 797 1041 1045 587 
Q 1294 134 1700 134 
Q 2003 134 2200 384 
Q 2397 634 2397 1244 
Q 2397 2006 2069 2444 
Q 1847 2744 1503 2744 
z
" transform="scale(0.015625)"/>
         <path id="TimesNewRomanPSMT-79" d="M 38 2863 
L 1372 2863 
L 1372 2747 
L 1306 2747 
Q 1166 2747 1095 2686 
Q 1025 2625 1025 2534 
Q 1025 2413 1128 2197 
L 1825 753 
L 2466 2334 
Q 2519 2463 2519 2588 
Q 2519 2644 2497 2672 
Q 2472 2706 2419 2726 
Q 2366 2747 2231 2747 
L 2231 2863 
L 3163 2863 
L 3163 2747 
Q 3047 2734 2984 2696 
Q 2922 2659 2847 2556 
Q 2819 2513 2741 2316 
L 1575 -541 
Q 1406 -956 1132 -1168 
Q 859 -1381 606 -1381 
Q 422 -1381 303 -1275 
Q 184 -1169 184 -1031 
Q 184 -900 270 -820 
Q 356 -741 506 -741 
Q 609 -741 788 -809 
Q 913 -856 944 -856 
Q 1038 -856 1148 -759 
Q 1259 -663 1372 -384 
L 1575 113 
L 547 2272 
Q 500 2369 397 2513 
Q 319 2622 269 2659 
Q 197 2709 38 2747 
L 38 2863 
z
" transform="scale(0.015625)"/>
        </defs>
        <use xlink:href="#TimesNewRomanPSMT-41"/>
        <use xlink:href="#TimesNewRomanPSMT-6e" transform="translate(72.216797 0)"/>
        <use xlink:href="#TimesNewRomanPSMT-6f" transform="translate(122.216797 0)"/>
        <use xlink:href="#TimesNewRomanPSMT-6d" transform="translate(172.216797 0)"/>
        <use xlink:href="#TimesNewRomanPSMT-61" transform="translate(250 0)"/>
        <use xlink:href="#TimesNewRomanPSMT-6c" transform="translate(294.384766 0)"/>
        <use xlink:href="#TimesNewRomanPSMT-79" transform="translate(322.167969 0)"/>
        <use xlink:href="#TimesNewRomanPSMT-43" transform="translate(372.167969 0)"/>
        <use xlink:href="#TimesNewRomanPSMT-4c" transform="translate(438.867188 0)"/>
        <use xlink:href="#TimesNewRomanPSMT-49" transform="translate(499.951172 0)"/>
        <use xlink:href="#TimesNewRomanPSMT-50" transform="translate(533.251953 0)"/>
       </g>
      </g>
      <g id="line2d_31">
       <path d="M 283.053881 353.936029 
L 299.053881 353.936029 
L 315.053881 353.936029 
" style="fill: none; stroke: #c62828; stroke-width: 2; stroke-linecap: square"/>
      </g>
      <g id="text_69">
       <!-- $\bf{Crane\ (Ours)}$ -->
       <g transform="translate(327.853881 359.536029) scale(0.16 -0.16)">
        <defs>
         <path id="DejaVuSans-Bold-43" d="M 4288 256 
Q 3956 84 3597 -3 
Q 3238 -91 2847 -91 
Q 1681 -91 1000 561 
Q 319 1213 319 2328 
Q 319 3447 1000 4098 
Q 1681 4750 2847 4750 
Q 3238 4750 3597 4662 
Q 3956 4575 4288 4403 
L 4288 3438 
Q 3953 3666 3628 3772 
Q 3303 3878 2944 3878 
Q 2300 3878 1931 3465 
Q 1563 3053 1563 2328 
Q 1563 1606 1931 1193 
Q 2300 781 2944 781 
Q 3303 781 3628 887 
Q 3953 994 4288 1222 
L 4288 256 
z
" transform="scale(0.015625)"/>
         <path id="DejaVuSans-Bold-72" d="M 3138 2547 
Q 2991 2616 2845 2648 
Q 2700 2681 2553 2681 
Q 2122 2681 1889 2404 
Q 1656 2128 1656 1613 
L 1656 0 
L 538 0 
L 538 3500 
L 1656 3500 
L 1656 2925 
Q 1872 3269 2151 3426 
Q 2431 3584 2822 3584 
Q 2878 3584 2943 3579 
Q 3009 3575 3134 3559 
L 3138 2547 
z
" transform="scale(0.015625)"/>
         <path id="DejaVuSans-Bold-61" d="M 2106 1575 
Q 1756 1575 1579 1456 
Q 1403 1338 1403 1106 
Q 1403 894 1545 773 
Q 1688 653 1941 653 
Q 2256 653 2472 879 
Q 2688 1106 2688 1447 
L 2688 1575 
L 2106 1575 
z
M 3816 1997 
L 3816 0 
L 2688 0 
L 2688 519 
Q 2463 200 2181 54 
Q 1900 -91 1497 -91 
Q 953 -91 614 226 
Q 275 544 275 1050 
Q 275 1666 698 1953 
Q 1122 2241 2028 2241 
L 2688 2241 
L 2688 2328 
Q 2688 2594 2478 2717 
Q 2269 2841 1825 2841 
Q 1466 2841 1156 2769 
Q 847 2697 581 2553 
L 581 3406 
Q 941 3494 1303 3539 
Q 1666 3584 2028 3584 
Q 2975 3584 3395 3211 
Q 3816 2838 3816 1997 
z
" transform="scale(0.015625)"/>
         <path id="DejaVuSans-Bold-6e" d="M 4056 2131 
L 4056 0 
L 2931 0 
L 2931 347 
L 2931 1631 
Q 2931 2084 2911 2256 
Q 2891 2428 2841 2509 
Q 2775 2619 2662 2680 
Q 2550 2741 2406 2741 
Q 2056 2741 1856 2470 
Q 1656 2200 1656 1722 
L 1656 0 
L 538 0 
L 538 3500 
L 1656 3500 
L 1656 2988 
Q 1909 3294 2193 3439 
Q 2478 3584 2822 3584 
Q 3428 3584 3742 3212 
Q 4056 2841 4056 2131 
z
" transform="scale(0.015625)"/>
         <path id="DejaVuSans-Bold-65" d="M 4031 1759 
L 4031 1441 
L 1416 1441 
Q 1456 1047 1700 850 
Q 1944 653 2381 653 
Q 2734 653 3104 758 
Q 3475 863 3866 1075 
L 3866 213 
Q 3469 63 3072 -14 
Q 2675 -91 2278 -91 
Q 1328 -91 801 392 
Q 275 875 275 1747 
Q 275 2603 792 3093 
Q 1309 3584 2216 3584 
Q 3041 3584 3536 3087 
Q 4031 2591 4031 1759 
z
M 2881 2131 
Q 2881 2450 2695 2645 
Q 2509 2841 2209 2841 
Q 1884 2841 1681 2658 
Q 1478 2475 1428 2131 
L 2881 2131 
z
" transform="scale(0.015625)"/>
         <path id="DejaVuSans-Bold-28" d="M 2413 -844 
L 1484 -844 
Q 1006 -72 778 623 
Q 550 1319 550 2003 
Q 550 2688 779 3389 
Q 1009 4091 1484 4856 
L 2413 4856 
Q 2013 4116 1813 3408 
Q 1613 2700 1613 2009 
Q 1613 1319 1811 609 
Q 2009 -100 2413 -844 
z
" transform="scale(0.015625)"/>
         <path id="DejaVuSans-Bold-4f" d="M 2719 3878 
Q 2169 3878 1866 3472 
Q 1563 3066 1563 2328 
Q 1563 1594 1866 1187 
Q 2169 781 2719 781 
Q 3272 781 3575 1187 
Q 3878 1594 3878 2328 
Q 3878 3066 3575 3472 
Q 3272 3878 2719 3878 
z
M 2719 4750 
Q 3844 4750 4481 4106 
Q 5119 3463 5119 2328 
Q 5119 1197 4481 553 
Q 3844 -91 2719 -91 
Q 1597 -91 958 553 
Q 319 1197 319 2328 
Q 319 3463 958 4106 
Q 1597 4750 2719 4750 
z
" transform="scale(0.015625)"/>
         <path id="DejaVuSans-Bold-75" d="M 500 1363 
L 500 3500 
L 1625 3500 
L 1625 3150 
Q 1625 2866 1622 2436 
Q 1619 2006 1619 1863 
Q 1619 1441 1641 1255 
Q 1663 1069 1716 984 
Q 1784 875 1895 815 
Q 2006 756 2150 756 
Q 2500 756 2700 1025 
Q 2900 1294 2900 1772 
L 2900 3500 
L 4019 3500 
L 4019 0 
L 2900 0 
L 2900 506 
Q 2647 200 2364 54 
Q 2081 -91 1741 -91 
Q 1134 -91 817 281 
Q 500 653 500 1363 
z
" transform="scale(0.015625)"/>
         <path id="DejaVuSans-Bold-73" d="M 3272 3391 
L 3272 2541 
Q 2913 2691 2578 2766 
Q 2244 2841 1947 2841 
Q 1628 2841 1473 2761 
Q 1319 2681 1319 2516 
Q 1319 2381 1436 2309 
Q 1553 2238 1856 2203 
L 2053 2175 
Q 2913 2066 3209 1816 
Q 3506 1566 3506 1031 
Q 3506 472 3093 190 
Q 2681 -91 1863 -91 
Q 1516 -91 1145 -36 
Q 775 19 384 128 
L 384 978 
Q 719 816 1070 734 
Q 1422 653 1784 653 
Q 2113 653 2278 743 
Q 2444 834 2444 1013 
Q 2444 1163 2330 1236 
Q 2216 1309 1875 1350 
L 1678 1375 
Q 931 1469 631 1722 
Q 331 1975 331 2491 
Q 331 3047 712 3315 
Q 1094 3584 1881 3584 
Q 2191 3584 2531 3537 
Q 2872 3491 3272 3391 
z
" transform="scale(0.015625)"/>
         <path id="DejaVuSans-Bold-29" d="M 513 -844 
Q 913 -100 1113 609 
Q 1313 1319 1313 2009 
Q 1313 2700 1113 3408 
Q 913 4116 513 4856 
L 1441 4856 
Q 1916 4091 2145 3389 
Q 2375 2688 2375 2003 
Q 2375 1319 2147 623 
Q 1919 -72 1441 -844 
L 513 -844 
z
" transform="scale(0.015625)"/>
        </defs>
        <use xlink:href="#DejaVuSans-Bold-43" transform="translate(0 0.125)"/>
        <use xlink:href="#DejaVuSans-Bold-72" transform="translate(73.388672 0.125)"/>
        <use xlink:href="#DejaVuSans-Bold-61" transform="translate(122.705078 0.125)"/>
        <use xlink:href="#DejaVuSans-Bold-6e" transform="translate(190.185547 0.125)"/>
        <use xlink:href="#DejaVuSans-Bold-65" transform="translate(261.376953 0.125)"/>
        <use xlink:href="#DejaVuSans-Bold-28" transform="translate(361.669597 0.125)"/>
        <use xlink:href="#DejaVuSans-Bold-4f" transform="translate(407.372722 0.125)"/>
        <use xlink:href="#DejaVuSans-Bold-75" transform="translate(492.382488 0.125)"/>
        <use xlink:href="#DejaVuSans-Bold-72" transform="translate(563.573894 0.125)"/>
        <use xlink:href="#DejaVuSans-Bold-73" transform="translate(612.8903 0.125)"/>
        <use xlink:href="#DejaVuSans-Bold-29" transform="translate(672.411785 0.125)"/>
       </g>
      </g>
     </g>
    </g>
    <defs>
     <clipPath id="pace822d638">
      <path d="M 320.288943 189.411029 
C 320.288943 171.178062 316.697446 153.122388 309.719992 136.277324 
C 302.742538 119.432259 292.51482 104.125398 279.622166 91.232743 
C 266.729512 78.340089 251.422651 68.112372 234.577586 61.134917 
C 217.732521 54.157463 199.676847 50.565966 181.443881 50.565966 
C 163.210914 50.565966 145.15524 54.157463 128.310176 61.134917 
C 111.465111 68.112372 96.15825 78.340089 83.265596 91.232743 
C 70.372941 104.125398 60.145224 119.432259 53.16777 136.277324 
C 46.190315 153.122388 42.598818 171.178062 42.598818 189.411029 
C 42.598818 207.643995 46.190315 225.699669 53.16777 242.544734 
C 60.145224 259.389798 70.372941 274.69666 83.265596 287.589314 
C 96.15825 300.481968 111.465111 310.709686 128.310176 317.68714 
C 145.15524 324.664594 163.210914 328.256091 181.443881 328.256091 
C 199.676847 328.256091 217.732521 324.664594 234.577586 317.68714 
C 251.422651 310.709686 266.729512 300.481968 279.622166 287.589314 
C 292.51482 274.69666 302.742538 259.389798 309.719992 242.544734 
C 316.697446 225.699669 320.288943 207.643995 320.288943 189.411029 
M 181.443881 189.411029 
C 181.443881 189.411029 181.443881 189.411029 181.443881 189.411029 
C 181.443881 189.411029 181.443881 189.411029 181.443881 189.411029 
C 181.443881 189.411029 181.443881 189.411029 181.443881 189.411029 
C 181.443881 189.411029 181.443881 189.411029 181.443881 189.411029 
C 181.443881 189.411029 181.443881 189.411029 181.443881 189.411029 
C 181.443881 189.411029 181.443881 189.411029 181.443881 189.411029 
C 181.443881 189.411029 181.443881 189.411029 181.443881 189.411029 
C 181.443881 189.411029 181.443881 189.411029 181.443881 189.411029 
C 181.443881 189.411029 181.443881 189.411029 181.443881 189.411029 
C 181.443881 189.411029 181.443881 189.411029 181.443881 189.411029 
C 181.443881 189.411029 181.443881 189.411029 181.443881 189.411029 
C 181.443881 189.411029 181.443881 189.411029 181.443881 189.411029 
C 181.443881 189.411029 181.443881 189.411029 181.443881 189.411029 
C 181.443881 189.411029 181.443881 189.411029 181.443881 189.411029 
C 181.443881 189.411029 181.443881 189.411029 181.443881 189.411029 
C 181.443881 189.411029 181.443881 189.411029 181.443881 189.411029 
z
"/>
     </clipPath>
     <clipPath id="p5e99d75388">
      <path d="M 674.888943 189.411029 
C 674.888943 171.178062 671.297446 153.122388 664.319992 136.277324 
C 657.342538 119.432259 647.11482 104.125398 634.222166 91.232743 
C 621.329512 78.340089 606.022651 68.112372 589.177586 61.134917 
C 572.332521 54.157463 554.276847 50.565966 536.043881 50.565966 
C 517.810914 50.565966 499.75524 54.157463 482.910176 61.134917 
C 466.065111 68.112372 450.75825 78.340089 437.865596 91.232743 
C 424.972941 104.125398 414.745224 119.432259 407.76777 136.277324 
C 400.790315 153.122388 397.198818 171.178062 397.198818 189.411029 
C 397.198818 207.643995 400.790315 225.699669 407.76777 242.544734 
C 414.745224 259.389798 424.972941 274.69666 437.865596 287.589314 
C 450.75825 300.481968 466.065111 310.709686 482.910176 317.68714 
C 499.75524 324.664594 517.810914 328.256091 536.043881 328.256091 
C 554.276847 328.256091 572.332521 324.664594 589.177586 317.68714 
C 606.022651 310.709686 621.329512 300.481968 634.222166 287.589314 
C 647.11482 274.69666 657.342538 259.389798 664.319992 242.544734 
C 671.297446 225.699669 674.888943 207.643995 674.888943 189.411029 
M 536.043881 189.411029 
C 536.043881 189.411029 536.043881 189.411029 536.043881 189.411029 
C 536.043881 189.411029 536.043881 189.411029 536.043881 189.411029 
C 536.043881 189.411029 536.043881 189.411029 536.043881 189.411029 
C 536.043881 189.411029 536.043881 189.411029 536.043881 189.411029 
C 536.043881 189.411029 536.043881 189.411029 536.043881 189.411029 
C 536.043881 189.411029 536.043881 189.411029 536.043881 189.411029 
C 536.043881 189.411029 536.043881 189.411029 536.043881 189.411029 
C 536.043881 189.411029 536.043881 189.411029 536.043881 189.411029 
C 536.043881 189.411029 536.043881 189.411029 536.043881 189.411029 
C 536.043881 189.411029 536.043881 189.411029 536.043881 189.411029 
C 536.043881 189.411029 536.043881 189.411029 536.043881 189.411029 
C 536.043881 189.411029 536.043881 189.411029 536.043881 189.411029 
C 536.043881 189.411029 536.043881 189.411029 536.043881 189.411029 
C 536.043881 189.411029 536.043881 189.411029 536.043881 189.411029 
C 536.043881 189.411029 536.043881 189.411029 536.043881 189.411029 
C 536.043881 189.411029 536.043881 189.411029 536.043881 189.411029 
z
"/>
     </clipPath>
    </defs>
   </g>
  </g>
 </g>
</svg>
